<svg width="20" height="20" viewBox="0 0 20 20" fill="none" xmlns="http://www.w3.org/2000/svg">
<g id="vuesax/bold/facebook">
<g id="facebook">
<path id="Vector" d="M18.3332 13.492C18.3332 16.5253 16.5248 18.3337 13.4915 18.3337H12.4998C12.0415 18.3337 11.6665 17.9587 11.6665 17.5003V12.692C11.6665 12.467 11.8498 12.2753 12.0748 12.2753L13.5415 12.2503C13.6582 12.242 13.7582 12.1587 13.7832 12.042L14.0749 10.4503C14.0998 10.3003 13.9832 10.1587 13.8248 10.1587L12.0498 10.1837C11.8165 10.1837 11.6332 10.0003 11.6248 9.77534L11.5915 7.73366C11.5915 7.60032 11.6998 7.48367 11.8415 7.48367L13.8415 7.45033C13.9832 7.45033 14.0915 7.342 14.0915 7.20034L14.0582 5.20032C14.0582 5.05865 13.9498 4.95033 13.8082 4.95033L11.5582 4.98367C10.1748 5.00867 9.07485 6.14199 9.09985 7.52532L9.14151 9.81699C9.14984 10.0503 8.96651 10.2337 8.73318 10.242L7.73317 10.2587C7.5915 10.2587 7.48318 10.367 7.48318 10.5086L7.50818 12.092C7.50818 12.2337 7.6165 12.342 7.75817 12.342L8.75818 12.3253C8.99151 12.3253 9.17483 12.5087 9.18316 12.7337L9.25816 17.4837C9.26649 17.9503 8.89149 18.3337 8.42483 18.3337H6.50817C3.47484 18.3337 1.6665 16.5253 1.6665 13.4837V6.50866C1.6665 3.47532 3.47484 1.66699 6.50817 1.66699H13.4915C16.5248 1.66699 18.3332 3.47532 18.3332 6.50866V13.492Z" fill="white" fill-opacity="0.8"/>
</g>
</g>
</svg>
