<svg width="246" height="129" viewBox="0 0 246 129" fill="none" xmlns="http://www.w3.org/2000/svg">
<g filter="url(#filter0_dd_3001_738)">
<g clip-path="url(#clip0_3001_738)">
<path d="M13 21.9578C13 19.2197 15.2197 17 17.9577 17H202.901C205.64 17 207.859 19.2197 207.859 21.9577V90.0422C207.859 92.7803 205.64 95 202.901 95H17.9577C15.2197 95 13 92.7803 13 90.0423V21.9578Z" fill="white"/>
<path d="M65.473 56.417C65.473 55.117 65.3564 53.867 65.1397 52.667H47.873V59.767H57.7397C57.3064 62.0503 56.0064 63.9837 54.0564 65.2837V69.9003H60.0064C63.473 66.7003 65.473 62.0003 65.473 56.417Z" fill="#4285F4"/>
<path d="M47.8725 74.3333C52.8225 74.3333 56.9725 72.7 60.0059 69.9L54.0559 65.2833C52.4225 66.3833 50.3392 67.05 47.8725 67.05C43.1059 67.05 39.0559 63.8333 37.6059 59.5H31.5059V64.2333C34.5225 70.2167 40.7059 74.3333 47.8725 74.3333Z" fill="#34A853"/>
<path d="M37.6116 59.4837C37.2449 58.3837 37.0283 57.217 37.0283 56.0004C37.0283 54.7837 37.2449 53.617 37.6116 52.517V47.7837H31.5116C30.2616 50.2504 29.5449 53.0337 29.5449 56.0004C29.5449 58.967 30.2616 61.7504 31.5116 64.217L36.2616 60.517L37.6116 59.4837Z" fill="#FBBC05"/>
<path d="M47.8725 44.967C50.5725 44.967 52.9725 45.9003 54.8892 47.7003L60.1392 42.4503C56.9559 39.4837 52.8225 37.667 47.8725 37.667C40.7059 37.667 34.5225 41.7837 31.5059 47.7837L37.6059 52.517C39.0559 48.1837 43.1059 44.967 47.8725 44.967Z" fill="#EA4335"/>
<path d="M79.7637 50.0037C79.2037 50.0037 78.6777 49.9057 78.1857 49.7097C77.6977 49.5097 77.2677 49.2177 76.8957 48.8337C76.5277 48.4497 76.2397 47.9797 76.0317 47.4237C75.8237 46.8637 75.7197 46.2237 75.7197 45.5037C75.7197 44.5597 75.8957 43.7537 76.2477 43.0857C76.5997 42.4137 77.0817 41.8997 77.6937 41.5437C78.3057 41.1837 78.9957 41.0037 79.7637 41.0037C80.8277 41.0037 81.6697 41.2517 82.2897 41.7477C82.9137 42.2397 83.3357 42.9317 83.5557 43.8237L82.0797 44.0577C81.9157 43.5457 81.6477 43.1377 81.2757 42.8337C80.9037 42.5257 80.4297 42.3717 79.8537 42.3717C79.2737 42.3637 78.7917 42.4897 78.4077 42.7497C78.0237 43.0097 77.7337 43.3757 77.5377 43.8477C77.3457 44.3197 77.2497 44.8717 77.2497 45.5037C77.2497 46.1357 77.3457 46.6857 77.5377 47.1537C77.7297 47.6177 78.0177 47.9797 78.4017 48.2397C78.7897 48.4997 79.2737 48.6337 79.8537 48.6417C80.2897 48.6457 80.6717 48.5677 80.9997 48.4077C81.3277 48.2437 81.5957 47.9977 81.8037 47.6697C82.0117 47.3377 82.1517 46.9237 82.2237 46.4277H80.6997V45.2937H83.7597C83.7677 45.3577 83.7737 45.4517 83.7777 45.5757C83.7817 45.6997 83.7837 45.7737 83.7837 45.7977C83.7837 46.6137 83.6217 47.3397 83.2977 47.9757C82.9777 48.6077 82.5177 49.1037 81.9177 49.4637C81.3177 49.8237 80.5997 50.0037 79.7637 50.0037ZM87.6507 50.0037C87.0027 50.0037 86.4367 49.8577 85.9527 49.5657C85.4687 49.2737 85.0927 48.8717 84.8247 48.3597C84.5607 47.8437 84.4287 47.2517 84.4287 46.5837C84.4287 45.9037 84.5647 45.3077 84.8367 44.7957C85.1087 44.2837 85.4867 43.8837 85.9707 43.5957C86.4547 43.3077 87.0147 43.1637 87.6507 43.1637C88.3027 43.1637 88.8707 43.3097 89.3547 43.6017C89.8387 43.8937 90.2147 44.2977 90.4827 44.8137C90.7507 45.3257 90.8847 45.9157 90.8847 46.5837C90.8847 47.2557 90.7487 47.8497 90.4767 48.3657C90.2087 48.8777 89.8327 49.2797 89.3487 49.5717C88.8647 49.8597 88.2987 50.0037 87.6507 50.0037ZM87.6507 48.6477C88.2267 48.6477 88.6547 48.4557 88.9347 48.0717C89.2147 47.6877 89.3547 47.1917 89.3547 46.5837C89.3547 45.9557 89.2127 45.4557 88.9287 45.0837C88.6447 44.7077 88.2187 44.5197 87.6507 44.5197C87.2627 44.5197 86.9427 44.6077 86.6907 44.7837C86.4427 44.9557 86.2587 45.1977 86.1387 45.5097C86.0187 45.8177 85.9587 46.1757 85.9587 46.5837C85.9587 47.2117 86.1007 47.7137 86.3847 48.0897C86.6727 48.4617 87.0947 48.6477 87.6507 48.6477ZM94.8687 50.0037C94.2207 50.0037 93.6547 49.8577 93.1707 49.5657C92.6867 49.2737 92.3107 48.8717 92.0427 48.3597C91.7787 47.8437 91.6467 47.2517 91.6467 46.5837C91.6467 45.9037 91.7827 45.3077 92.0547 44.7957C92.3267 44.2837 92.7047 43.8837 93.1887 43.5957C93.6727 43.3077 94.2327 43.1637 94.8687 43.1637C95.5207 43.1637 96.0887 43.3097 96.5727 43.6017C97.0567 43.8937 97.4327 44.2977 97.7007 44.8137C97.9687 45.3257 98.1027 45.9157 98.1027 46.5837C98.1027 47.2557 97.9667 47.8497 97.6947 48.3657C97.4267 48.8777 97.0507 49.2797 96.5667 49.5717C96.0827 49.8597 95.5167 50.0037 94.8687 50.0037ZM94.8687 48.6477C95.4447 48.6477 95.8727 48.4557 96.1527 48.0717C96.4327 47.6877 96.5727 47.1917 96.5727 46.5837C96.5727 45.9557 96.4307 45.4557 96.1467 45.0837C95.8627 44.7077 95.4367 44.5197 94.8687 44.5197C94.4807 44.5197 94.1607 44.6077 93.9087 44.7837C93.6607 44.9557 93.4767 45.1977 93.3567 45.5097C93.2367 45.8177 93.1767 46.1757 93.1767 46.5837C93.1767 47.2117 93.3187 47.7137 93.6027 48.0897C93.8907 48.4617 94.3127 48.6477 94.8687 48.6477ZM101.949 52.8837C101.589 52.8837 101.243 52.8277 100.911 52.7157C100.583 52.6037 100.287 52.4417 100.023 52.2297C99.7587 52.0217 99.5427 51.7697 99.3747 51.4737L100.707 50.8137C100.831 51.0497 101.005 51.2237 101.229 51.3357C101.457 51.4517 101.699 51.5097 101.955 51.5097C102.255 51.5097 102.523 51.4557 102.759 51.3477C102.995 51.2437 103.177 51.0877 103.305 50.8797C103.437 50.6757 103.499 50.4197 103.491 50.1117V48.2697H103.671V43.3437H104.937V50.1357C104.937 50.2997 104.929 50.4557 104.913 50.6037C104.901 50.7557 104.879 50.9037 104.847 51.0477C104.751 51.4677 104.567 51.8117 104.295 52.0797C104.023 52.3517 103.685 52.5537 103.281 52.6857C102.881 52.8177 102.437 52.8837 101.949 52.8837ZM101.823 50.0037C101.227 50.0037 100.707 49.8537 100.263 49.5537C99.8187 49.2537 99.4747 48.8457 99.2307 48.3297C98.9867 47.8137 98.8647 47.2317 98.8647 46.5837C98.8647 45.9277 98.9867 45.3437 99.2307 44.8317C99.4787 44.3157 99.8287 43.9097 100.281 43.6137C100.733 43.3137 101.265 43.1637 101.877 43.1637C102.493 43.1637 103.009 43.3137 103.425 43.6137C103.845 43.9097 104.163 44.3157 104.379 44.8317C104.595 45.3477 104.703 45.9317 104.703 46.5837C104.703 47.2277 104.595 47.8097 104.379 48.3297C104.163 48.8457 103.841 49.2537 103.413 49.5537C102.985 49.8537 102.455 50.0037 101.823 50.0037ZM102.045 48.7077C102.433 48.7077 102.745 48.6197 102.981 48.4437C103.221 48.2637 103.395 48.0137 103.503 47.6937C103.615 47.3737 103.671 47.0037 103.671 46.5837C103.671 46.1597 103.615 45.7897 103.503 45.4737C103.395 45.1537 103.225 44.9057 102.993 44.7297C102.761 44.5497 102.461 44.4597 102.093 44.4597C101.705 44.4597 101.385 44.5557 101.133 44.7477C100.881 44.9357 100.695 45.1917 100.575 45.5157C100.455 45.8357 100.395 46.1917 100.395 46.5837C100.395 46.9797 100.453 47.3397 100.569 47.6637C100.689 47.9837 100.871 48.2377 101.115 48.4257C101.359 48.6137 101.669 48.7077 102.045 48.7077ZM106.539 49.8237V41.0037H107.985V49.8237H106.539ZM112.528 50.0037C111.872 50.0037 111.296 49.8617 110.8 49.5777C110.304 49.2937 109.916 48.8997 109.636 48.3957C109.36 47.8917 109.222 47.3117 109.222 46.6557C109.222 45.9477 109.358 45.3337 109.63 44.8137C109.902 44.2897 110.28 43.8837 110.764 43.5957C111.248 43.3077 111.808 43.1637 112.444 43.1637C113.116 43.1637 113.686 43.3217 114.154 43.6377C114.626 43.9497 114.976 44.3917 115.204 44.9637C115.432 45.5357 115.518 46.2097 115.462 46.9857H114.028V46.4577C114.024 45.7537 113.9 45.2397 113.656 44.9157C113.412 44.5917 113.028 44.4297 112.504 44.4297C111.912 44.4297 111.472 44.6137 111.184 44.9817C110.896 45.3457 110.752 45.8797 110.752 46.5837C110.752 47.2397 110.896 47.7477 111.184 48.1077C111.472 48.4677 111.892 48.6477 112.444 48.6477C112.8 48.6477 113.106 48.5697 113.362 48.4137C113.622 48.2537 113.822 48.0237 113.962 47.7237L115.39 48.1557C115.142 48.7397 114.758 49.1937 114.238 49.5177C113.722 49.8417 113.152 50.0037 112.528 50.0037ZM110.296 46.9857V45.8937H114.754V46.9857H110.296ZM118.804 49.8237V41.1837H122.374C122.458 41.1837 122.566 41.1877 122.698 41.1957C122.83 41.1997 122.952 41.2117 123.064 41.2317C123.564 41.3077 123.976 41.4737 124.3 41.7297C124.628 41.9857 124.87 42.3097 125.026 42.7017C125.186 43.0897 125.266 43.5217 125.266 43.9977C125.266 44.7017 125.088 45.3077 124.732 45.8157C124.376 46.3197 123.83 46.6317 123.094 46.7517L122.476 46.8057H120.25V49.8237H118.804ZM123.766 49.8237L122.062 46.3077L123.532 45.9837L125.404 49.8237H123.766ZM120.25 45.4557H122.314C122.394 45.4557 122.484 45.4517 122.584 45.4437C122.684 45.4357 122.776 45.4197 122.86 45.3957C123.1 45.3357 123.288 45.2297 123.424 45.0777C123.564 44.9257 123.662 44.7537 123.718 44.5617C123.778 44.3697 123.808 44.1817 123.808 43.9977C123.808 43.8137 123.778 43.6257 123.718 43.4337C123.662 43.2377 123.564 43.0637 123.424 42.9117C123.288 42.7597 123.1 42.6537 122.86 42.5937C122.776 42.5697 122.684 42.5557 122.584 42.5517C122.484 42.5437 122.394 42.5397 122.314 42.5397H120.25V45.4557ZM128.337 50.0037C127.869 50.0037 127.473 49.9157 127.149 49.7397C126.825 49.5597 126.579 49.3217 126.411 49.0257C126.247 48.7297 126.165 48.4037 126.165 48.0477C126.165 47.7357 126.217 47.4557 126.321 47.2077C126.425 46.9557 126.585 46.7397 126.801 46.5597C127.017 46.3757 127.297 46.2257 127.641 46.1097C127.901 46.0257 128.205 45.9497 128.553 45.8817C128.905 45.8137 129.285 45.7517 129.693 45.6957C130.105 45.6357 130.535 45.5717 130.983 45.5037L130.467 45.7977C130.471 45.3497 130.371 45.0197 130.167 44.8077C129.963 44.5957 129.619 44.4897 129.135 44.4897C128.843 44.4897 128.561 44.5577 128.289 44.6937C128.017 44.8297 127.827 45.0637 127.719 45.3957L126.399 44.9817C126.559 44.4337 126.863 43.9937 127.311 43.6617C127.763 43.3297 128.371 43.1637 129.135 43.1637C129.711 43.1637 130.217 43.2577 130.653 43.4457C131.093 43.6337 131.419 43.9417 131.631 44.3697C131.747 44.5977 131.817 44.8317 131.841 45.0717C131.865 45.3077 131.877 45.5657 131.877 45.8457V49.8237H130.611V48.4197L130.821 48.6477C130.529 49.1157 130.187 49.4597 129.795 49.6797C129.407 49.8957 128.921 50.0037 128.337 50.0037ZM128.625 48.8517C128.953 48.8517 129.233 48.7937 129.465 48.6777C129.697 48.5617 129.881 48.4197 130.017 48.2517C130.157 48.0837 130.251 47.9257 130.299 47.7777C130.375 47.5937 130.417 47.3837 130.425 47.1477C130.437 46.9077 130.443 46.7137 130.443 46.5657L130.887 46.6977C130.451 46.7657 130.077 46.8257 129.765 46.8777C129.453 46.9297 129.185 46.9797 128.961 47.0277C128.737 47.0717 128.539 47.1217 128.367 47.1777C128.199 47.2377 128.057 47.3077 127.941 47.3877C127.825 47.4677 127.735 47.5597 127.671 47.6637C127.611 47.7677 127.581 47.8897 127.581 48.0297C127.581 48.1897 127.621 48.3317 127.701 48.4557C127.781 48.5757 127.897 48.6717 128.049 48.7437C128.205 48.8157 128.397 48.8517 128.625 48.8517ZM137.038 49.8237C136.61 49.9037 136.19 49.9377 135.778 49.9257C135.37 49.9177 135.004 49.8437 134.68 49.7037C134.356 49.5597 134.11 49.3337 133.942 49.0257C133.794 48.7457 133.716 48.4597 133.708 48.1677C133.7 47.8757 133.696 47.5457 133.696 47.1777V41.5437H135.136V47.0937C135.136 47.3537 135.138 47.5817 135.142 47.7777C135.15 47.9737 135.192 48.1337 135.268 48.2577C135.412 48.4977 135.642 48.6317 135.958 48.6597C136.274 48.6877 136.634 48.6717 137.038 48.6117V49.8237ZM132.52 44.4777V43.3437H137.038V44.4777H132.52ZM138.351 42.3597V41.0337H139.797V42.3597H138.351ZM138.351 49.8237V43.3437H139.797V49.8237H138.351ZM145.876 49.8237V46.7037C145.876 46.4997 145.862 46.2737 145.834 46.0257C145.806 45.7777 145.74 45.5397 145.636 45.3117C145.536 45.0797 145.384 44.8897 145.18 44.7417C144.98 44.5937 144.708 44.5197 144.364 44.5197C144.18 44.5197 143.998 44.5497 143.818 44.6097C143.638 44.6697 143.474 44.7737 143.326 44.9217C143.182 45.0657 143.066 45.2657 142.978 45.5217C142.89 45.7737 142.846 46.0977 142.846 46.4937L141.988 46.1277C141.988 45.5757 142.094 45.0757 142.306 44.6277C142.522 44.1797 142.838 43.8237 143.254 43.5597C143.67 43.2917 144.182 43.1577 144.79 43.1577C145.27 43.1577 145.666 43.2377 145.978 43.3977C146.29 43.5577 146.538 43.7617 146.722 44.0097C146.906 44.2577 147.042 44.5217 147.13 44.8017C147.218 45.0817 147.274 45.3477 147.298 45.5997C147.326 45.8477 147.34 46.0497 147.34 46.2057V49.8237H145.876ZM141.382 49.8237V43.3437H142.672V45.3537H142.846V49.8237H141.382ZM151.43 52.8837C151.07 52.8837 150.724 52.8277 150.392 52.7157C150.064 52.6037 149.768 52.4417 149.504 52.2297C149.24 52.0217 149.024 51.7697 148.856 51.4737L150.188 50.8137C150.312 51.0497 150.486 51.2237 150.71 51.3357C150.938 51.4517 151.18 51.5097 151.436 51.5097C151.736 51.5097 152.004 51.4557 152.24 51.3477C152.476 51.2437 152.658 51.0877 152.786 50.8797C152.918 50.6757 152.98 50.4197 152.972 50.1117V48.2697H153.152V43.3437H154.418V50.1357C154.418 50.2997 154.41 50.4557 154.394 50.6037C154.382 50.7557 154.36 50.9037 154.328 51.0477C154.232 51.4677 154.048 51.8117 153.776 52.0797C153.504 52.3517 153.166 52.5537 152.762 52.6857C152.362 52.8177 151.918 52.8837 151.43 52.8837ZM151.304 50.0037C150.708 50.0037 150.188 49.8537 149.744 49.5537C149.3 49.2537 148.956 48.8457 148.712 48.3297C148.468 47.8137 148.346 47.2317 148.346 46.5837C148.346 45.9277 148.468 45.3437 148.712 44.8317C148.96 44.3157 149.31 43.9097 149.762 43.6137C150.214 43.3137 150.746 43.1637 151.358 43.1637C151.974 43.1637 152.49 43.3137 152.906 43.6137C153.326 43.9097 153.644 44.3157 153.86 44.8317C154.076 45.3477 154.184 45.9317 154.184 46.5837C154.184 47.2277 154.076 47.8097 153.86 48.3297C153.644 48.8457 153.322 49.2537 152.894 49.5537C152.466 49.8537 151.936 50.0037 151.304 50.0037ZM151.526 48.7077C151.914 48.7077 152.226 48.6197 152.462 48.4437C152.702 48.2637 152.876 48.0137 152.984 47.6937C153.096 47.3737 153.152 47.0037 153.152 46.5837C153.152 46.1597 153.096 45.7897 152.984 45.4737C152.876 45.1537 152.706 44.9057 152.474 44.7297C152.242 44.5497 151.942 44.4597 151.574 44.4597C151.186 44.4597 150.866 44.5557 150.614 44.7477C150.362 44.9357 150.176 45.1917 150.056 45.5157C149.936 45.8357 149.876 46.1917 149.876 46.5837C149.876 46.9797 149.934 47.3397 150.05 47.6637C150.17 47.9837 150.352 48.2377 150.596 48.4257C150.84 48.6137 151.15 48.7077 151.526 48.7077Z" fill="#6A6A6A"/>
<path d="M80.6804 67.5V65.834H76.2144V64.259L79.4414 57.42H81.3664L78.1394 64.259H80.6804V61.634H82.3884V64.259H83.3334V65.834H82.3884V67.5H80.6804ZM84.7185 67.5V65.771H86.4475V67.5H84.7185ZM91.6454 57.224C92.3034 57.224 92.8961 57.3803 93.4234 57.693C93.9508 58.001 94.3661 58.4303 94.6694 58.981C94.9774 59.527 95.1314 60.157 95.1314 60.871V63.944C95.1314 64.7047 94.9774 65.3697 94.6694 65.939C94.3661 66.5037 93.9391 66.94 93.3884 67.248C92.8378 67.556 92.1938 67.71 91.4564 67.71C90.9478 67.71 90.4671 67.6237 90.0144 67.451C89.5618 67.2737 89.1558 67.003 88.7964 66.639L90.0074 65.456C90.1894 65.666 90.4064 65.8317 90.6584 65.953C90.9151 66.0697 91.1811 66.128 91.4564 66.128C91.8484 66.128 92.1914 66.037 92.4854 65.855C92.7794 65.6683 93.0081 65.428 93.1714 65.134C93.3348 64.8353 93.4164 64.5157 93.4164 64.175V62.502L93.7174 62.838C93.4328 63.174 93.0874 63.4377 92.6814 63.629C92.2754 63.8157 91.8484 63.909 91.4004 63.909C90.7704 63.909 90.2104 63.7643 89.7204 63.475C89.2351 63.1857 88.8524 62.7937 88.5724 62.299C88.2971 61.7997 88.1594 61.235 88.1594 60.605C88.1594 59.975 88.3181 59.4057 88.6354 58.897C88.9528 58.3837 89.3751 57.9777 89.9024 57.679C90.4344 57.3757 91.0154 57.224 91.6454 57.224ZM91.6454 58.834C91.3188 58.834 91.0201 58.9133 90.7494 59.072C90.4788 59.2307 90.2641 59.4453 90.1054 59.716C89.9468 59.982 89.8674 60.2783 89.8674 60.605C89.8674 60.9317 89.9444 61.2303 90.0984 61.501C90.2571 61.7717 90.4694 61.9863 90.7354 62.145C91.0061 62.3037 91.3048 62.383 91.6314 62.383C91.9581 62.383 92.2568 62.3037 92.5274 62.145C92.7981 61.9863 93.0128 61.7717 93.1714 61.501C93.3348 61.2303 93.4164 60.9317 93.4164 60.605C93.4164 60.2877 93.3371 59.996 93.1784 59.73C93.0198 59.4593 92.8051 59.2423 92.5344 59.079C92.2684 58.9157 91.9721 58.834 91.6454 58.834Z" fill="#FEA500"/>
<path d="M114.347 54.9407C114.575 54.4821 115.229 54.4821 115.457 54.9407L117.318 58.6863C117.408 58.8679 117.581 58.9939 117.782 59.0236L121.919 59.6361C122.426 59.7111 122.628 60.3333 122.262 60.6917L119.275 63.6191C119.13 63.7611 119.064 63.9649 119.098 64.1649L119.794 68.289C119.879 68.7939 119.35 69.1785 118.896 68.9414L115.189 67.005C115.009 66.9111 114.794 66.9111 114.615 67.005L110.908 68.9414C110.454 69.1785 109.924 68.7939 110.01 68.289L110.706 64.1649C110.739 63.9649 110.673 63.7611 110.528 63.6191L107.541 60.6917C107.175 60.3333 107.377 59.7111 107.884 59.6361L112.021 59.0236C112.222 58.9939 112.395 58.8679 112.486 58.6863L114.347 54.9407Z" fill="#FEA500"/>
<path d="M131.699 54.9407C131.927 54.4821 132.581 54.4821 132.809 54.9407L134.67 58.6863C134.76 58.8679 134.933 58.9939 135.134 59.0236L139.271 59.6361C139.778 59.7111 139.98 60.3333 139.614 60.6917L136.627 63.6191C136.482 63.7611 136.416 63.9649 136.45 64.1649L137.146 68.289C137.231 68.7939 136.702 69.1785 136.248 68.9414L132.541 67.005C132.361 66.9111 132.147 66.9111 131.967 67.005L128.26 68.9414C127.806 69.1785 127.276 68.7939 127.362 68.289L128.058 64.1649C128.091 63.9649 128.025 63.7611 127.88 63.6191L124.893 60.6917C124.527 60.3333 124.73 59.7111 125.236 59.6361L129.373 59.0236C129.574 58.9939 129.747 58.8679 129.838 58.6863L131.699 54.9407Z" fill="#FEA500"/>
<path d="M149.051 54.9407C149.279 54.4821 149.933 54.4821 150.161 54.9407L152.022 58.6863C152.112 58.8679 152.285 58.9939 152.486 59.0236L156.623 59.6361C157.13 59.7111 157.332 60.3333 156.966 60.6917L153.979 63.6191C153.834 63.7611 153.768 63.9649 153.802 64.1649L154.498 68.289C154.583 68.7939 154.054 69.1785 153.6 68.9414L149.893 67.005C149.713 66.9111 149.499 66.9111 149.319 67.005L145.612 68.9414C145.158 69.1785 144.628 68.7939 144.714 68.289L145.41 64.1649C145.443 63.9649 145.377 63.7611 145.232 63.6191L142.245 60.6917C141.879 60.3333 142.082 59.7111 142.588 59.6361L146.726 59.0236C146.926 58.9939 147.1 58.8679 147.19 58.6863L149.051 54.9407Z" fill="#FEA500"/>
<path d="M166.403 54.9407C166.631 54.4821 167.285 54.4821 167.513 54.9407L169.374 58.6863C169.464 58.8679 169.637 58.9939 169.838 59.0236L173.975 59.6361C174.482 59.7111 174.684 60.3333 174.318 60.6917L171.331 63.6191C171.186 63.7611 171.12 63.9649 171.154 64.1649L171.85 68.289C171.935 68.7939 171.406 69.1785 170.952 68.9414L167.245 67.005C167.065 66.9111 166.851 66.9111 166.671 67.005L162.964 68.9414C162.51 69.1785 161.98 68.7939 162.066 68.289L162.762 64.1649C162.795 63.9649 162.729 63.7611 162.584 63.6191L159.597 60.6917C159.231 60.3333 159.434 59.7111 159.94 59.6361L164.078 59.0236C164.278 58.9939 164.452 58.8679 164.542 58.6863L166.403 54.9407Z" fill="#FEA500"/>
<path d="M183.755 54.9407C183.983 54.4821 184.637 54.4821 184.865 54.9407L186.726 58.6863C186.816 58.8679 186.989 58.9939 187.19 59.0236L191.327 59.6361C191.834 59.7111 192.036 60.3333 191.67 60.6917L188.683 63.6191C188.538 63.7611 188.472 63.9649 188.506 64.1649L189.202 68.289C189.287 68.7939 188.758 69.1785 188.304 68.9414L184.597 67.005C184.417 66.9111 184.203 66.9111 184.023 67.005L180.316 68.9414C179.862 69.1785 179.333 68.7939 179.418 68.289L180.114 64.1649C180.148 63.9649 180.081 63.7611 179.936 63.6191L176.949 60.6917C176.583 60.3333 176.786 59.7111 177.292 59.6361L181.43 59.0236C181.63 58.9939 181.804 58.8679 181.894 58.6863L183.755 54.9407Z" fill="#FEA500"/>
</g>
</g>
<defs>
<filter id="filter0_dd_3001_738" x="0.605634" y="0.887323" width="244.437" height="127.577" filterUnits="userSpaceOnUse" color-interpolation-filters="sRGB">
<feFlood flood-opacity="0" result="BackgroundImageFix"/>
<feColorMatrix in="SourceAlpha" type="matrix" values="0 0 0 0 0 0 0 0 0 0 0 0 0 0 0 0 0 0 127 0" result="hardAlpha"/>
<feOffset dx="12.3944" dy="8.67606"/>
<feGaussianBlur stdDeviation="12.3944"/>
<feComposite in2="hardAlpha" operator="out"/>
<feColorMatrix type="matrix" values="0 0 0 0 0 0 0 0 0 0 0 0 0 0 0 0 0 0 0.08 0"/>
<feBlend mode="normal" in2="BackgroundImageFix" result="effect1_dropShadow_3001_738"/>
<feColorMatrix in="SourceAlpha" type="matrix" values="0 0 0 0 0 0 0 0 0 0 0 0 0 0 0 0 0 0 127 0" result="hardAlpha"/>
<feOffset dx="-2.47887" dy="-1.23944"/>
<feGaussianBlur stdDeviation="4.95775"/>
<feComposite in2="hardAlpha" operator="out"/>
<feColorMatrix type="matrix" values="0 0 0 0 0 0 0 0 0 0 0 0 0 0 0 0 0 0 0.08 0"/>
<feBlend mode="normal" in2="effect1_dropShadow_3001_738" result="effect2_dropShadow_3001_738"/>
<feBlend mode="normal" in="SourceGraphic" in2="effect2_dropShadow_3001_738" result="shape"/>
</filter>
<clipPath id="clip0_3001_738">
<path d="M13 21.9578C13 19.2197 15.2197 17 17.9577 17H202.901C205.64 17 207.859 19.2197 207.859 21.9577V90.0422C207.859 92.7803 205.64 95 202.901 95H17.9577C15.2197 95 13 92.7803 13 90.0423V21.9578Z" fill="white"/>
</clipPath>
</defs>
</svg>
