<svg width="1372" height="536" viewBox="0 0 1372 536" fill="none" xmlns="http://www.w3.org/2000/svg">
<g filter="url(#filter0_d_3002_791)">
<rect x="30" y="26" width="1312" height="411" rx="10" fill="white"/>
<rect x="30.5" y="26.5" width="1311" height="410" rx="9.5" stroke="#051238" stroke-opacity="0.2"/>
</g>
<g filter="url(#filter1_d_3002_791)">
<rect x="30" y="26" width="1312" height="476" rx="10" fill="white"/>
<rect x="30.5" y="26.5" width="1311" height="475" rx="9.5" stroke="#051238" stroke-opacity="0.2"/>
</g>
<line x1="150.5" y1="104" x2="150.5" y2="437" stroke="url(#paint0_linear_3002_791)"/>
<line x1="254.5" y1="104" x2="254.5" y2="437" stroke="url(#paint1_linear_3002_791)"/>
<line x1="359.5" y1="104" x2="359.5" y2="437" stroke="url(#paint2_linear_3002_791)"/>
<line x1="466.5" y1="104" x2="466.5" y2="437" stroke="url(#paint3_linear_3002_791)"/>
<line x1="570.5" y1="104" x2="570.5" y2="437" stroke="url(#paint4_linear_3002_791)"/>
<line x1="676.5" y1="104" x2="676.5" y2="437" stroke="url(#paint5_linear_3002_791)"/>
<line x1="780.5" y1="104" x2="780.5" y2="437" stroke="url(#paint6_linear_3002_791)"/>
<line x1="887.5" y1="104" x2="887.5" y2="437" stroke="url(#paint7_linear_3002_791)"/>
<line x1="993.5" y1="104" x2="993.5" y2="437" stroke="url(#paint8_linear_3002_791)"/>
<line x1="1107.5" y1="104" x2="1107.5" y2="437" stroke="url(#paint9_linear_3002_791)"/>
<line x1="1220.5" y1="104" x2="1220.5" y2="437" stroke="url(#paint10_linear_3002_791)"/>
<rect x="776" y="207" width="537" height="47" rx="23.5" fill="#00FF94"/>
<path d="M1002.18 236V225.92H1003.87V230.162H1008.64V225.92H1010.32V236H1008.64V231.744H1003.87V236H1002.18ZM1011.63 227.292V225.745H1013.31V227.292H1011.63ZM1011.63 236V228.44H1013.31V236H1011.63ZM1014.61 236V228.44H1016.1V230.281L1015.92 230.043C1016.01 229.791 1016.14 229.562 1016.29 229.357C1016.45 229.147 1016.64 228.974 1016.86 228.839C1017.04 228.713 1017.25 228.615 1017.47 228.545C1017.7 228.47 1017.94 228.426 1018.17 228.412C1018.41 228.393 1018.64 228.403 1018.87 228.44V230.015C1018.64 229.95 1018.38 229.929 1018.09 229.952C1017.8 229.975 1017.54 230.057 1017.31 230.197C1017.07 230.323 1016.88 230.484 1016.73 230.68C1016.59 230.876 1016.48 231.1 1016.41 231.352C1016.34 231.599 1016.3 231.868 1016.3 232.157V236H1014.61ZM1019.54 227.292V225.745H1021.23V227.292H1019.54ZM1019.54 236V228.44H1021.23V236H1019.54ZM1027.76 236V232.36C1027.76 232.122 1027.74 231.858 1027.71 231.569C1027.67 231.28 1027.6 231.002 1027.48 230.736C1027.36 230.465 1027.18 230.244 1026.94 230.071C1026.71 229.898 1026.39 229.812 1025.99 229.812C1025.78 229.812 1025.56 229.847 1025.35 229.917C1025.14 229.987 1024.95 230.108 1024.78 230.281C1024.61 230.449 1024.48 230.682 1024.37 230.981C1024.27 231.275 1024.22 231.653 1024.22 232.115L1023.22 231.688C1023.22 231.044 1023.34 230.461 1023.59 229.938C1023.84 229.415 1024.21 229 1024.7 228.692C1025.18 228.379 1025.78 228.223 1026.49 228.223C1027.05 228.223 1027.51 228.316 1027.87 228.503C1028.24 228.69 1028.53 228.928 1028.74 229.217C1028.96 229.506 1029.12 229.814 1029.22 230.141C1029.32 230.468 1029.39 230.778 1029.41 231.072C1029.45 231.361 1029.46 231.597 1029.46 231.779V236H1027.76ZM1022.51 236V228.44H1024.02V230.785H1024.22V236H1022.51ZM1033.67 239.57C1033.25 239.57 1032.84 239.505 1032.46 239.374C1032.07 239.243 1031.73 239.054 1031.42 238.807C1031.11 238.564 1030.86 238.27 1030.66 237.925L1032.22 237.155C1032.36 237.43 1032.57 237.633 1032.83 237.764C1033.09 237.899 1033.38 237.967 1033.67 237.967C1034.02 237.967 1034.34 237.904 1034.61 237.778C1034.89 237.657 1035.1 237.475 1035.25 237.232C1035.4 236.994 1035.48 236.695 1035.47 236.336V234.187H1035.68V228.44H1037.15V236.364C1037.15 236.555 1037.14 236.737 1037.13 236.91C1037.11 237.087 1037.09 237.26 1037.05 237.428C1036.94 237.918 1036.72 238.319 1036.4 238.632C1036.09 238.949 1035.69 239.185 1035.22 239.339C1034.76 239.493 1034.24 239.57 1033.67 239.57ZM1033.52 236.21C1032.83 236.21 1032.22 236.035 1031.7 235.685C1031.18 235.335 1030.78 234.859 1030.5 234.257C1030.21 233.655 1030.07 232.976 1030.07 232.22C1030.07 231.455 1030.21 230.773 1030.5 230.176C1030.79 229.574 1031.19 229.1 1031.72 228.755C1032.25 228.405 1032.87 228.23 1033.58 228.23C1034.3 228.23 1034.9 228.405 1035.39 228.755C1035.88 229.1 1036.25 229.574 1036.5 230.176C1036.75 230.778 1036.88 231.459 1036.88 232.22C1036.88 232.971 1036.75 233.65 1036.5 234.257C1036.25 234.859 1035.88 235.335 1035.38 235.685C1034.88 236.035 1034.26 236.21 1033.52 236.21ZM1033.78 234.698C1034.23 234.698 1034.6 234.595 1034.87 234.39C1035.15 234.18 1035.35 233.888 1035.48 233.515C1035.61 233.142 1035.68 232.71 1035.68 232.22C1035.68 231.725 1035.61 231.294 1035.48 230.925C1035.35 230.552 1035.16 230.262 1034.89 230.057C1034.62 229.847 1034.27 229.742 1033.84 229.742C1033.38 229.742 1033.01 229.854 1032.72 230.078C1032.42 230.297 1032.2 230.596 1032.06 230.974C1031.92 231.347 1031.85 231.763 1031.85 232.22C1031.85 232.682 1031.92 233.102 1032.06 233.48C1032.2 233.853 1032.41 234.15 1032.69 234.369C1032.98 234.588 1033.34 234.698 1033.78 234.698ZM1046.59 236.21C1045.58 236.21 1044.71 235.991 1044 235.552C1043.28 235.109 1042.72 234.493 1042.34 233.704C1041.95 232.915 1041.76 232.001 1041.76 230.96C1041.76 229.919 1041.95 229.005 1042.34 228.216C1042.72 227.427 1043.28 226.814 1044 226.375C1044.71 225.932 1045.58 225.71 1046.59 225.71C1047.75 225.71 1048.72 226.002 1049.49 226.585C1050.26 227.164 1050.81 227.945 1051.12 228.93L1049.42 229.399C1049.22 228.741 1048.89 228.228 1048.42 227.859C1047.95 227.486 1047.34 227.299 1046.59 227.299C1045.91 227.299 1045.34 227.451 1044.89 227.754C1044.44 228.057 1044.1 228.484 1043.88 229.035C1043.65 229.581 1043.54 230.223 1043.53 230.96C1043.53 231.697 1043.65 232.341 1043.87 232.892C1044.1 233.438 1044.44 233.863 1044.89 234.166C1045.34 234.469 1045.91 234.621 1046.59 234.621C1047.34 234.621 1047.95 234.434 1048.42 234.061C1048.89 233.688 1049.22 233.174 1049.42 232.521L1051.12 232.99C1050.81 233.975 1050.26 234.759 1049.49 235.342C1048.72 235.921 1047.75 236.21 1046.59 236.21ZM1055.2 236.21C1054.44 236.21 1053.78 236.04 1053.22 235.699C1052.65 235.358 1052.21 234.889 1051.9 234.292C1051.59 233.69 1051.44 232.999 1051.44 232.22C1051.44 231.427 1051.6 230.731 1051.91 230.134C1052.23 229.537 1052.67 229.07 1053.24 228.734C1053.8 228.398 1054.46 228.23 1055.2 228.23C1055.96 228.23 1056.62 228.4 1057.19 228.741C1057.75 229.082 1058.19 229.553 1058.5 230.155C1058.81 230.752 1058.97 231.441 1058.97 232.22C1058.97 233.004 1058.81 233.697 1058.49 234.299C1058.18 234.896 1057.74 235.365 1057.18 235.706C1056.61 236.042 1055.95 236.21 1055.2 236.21ZM1055.2 234.628C1055.87 234.628 1056.37 234.404 1056.7 233.956C1057.02 233.508 1057.19 232.929 1057.19 232.22C1057.19 231.487 1057.02 230.904 1056.69 230.47C1056.36 230.031 1055.86 229.812 1055.2 229.812C1054.74 229.812 1054.37 229.915 1054.08 230.12C1053.79 230.321 1053.57 230.603 1053.43 230.967C1053.29 231.326 1053.22 231.744 1053.22 232.22C1053.22 232.953 1053.39 233.538 1053.72 233.977C1054.06 234.411 1054.55 234.628 1055.2 234.628ZM1064.94 236V232.36C1064.94 232.122 1064.93 231.858 1064.89 231.569C1064.86 231.28 1064.78 231.002 1064.66 230.736C1064.54 230.465 1064.37 230.244 1064.13 230.071C1063.9 229.898 1063.58 229.812 1063.18 229.812C1062.96 229.812 1062.75 229.847 1062.54 229.917C1062.33 229.987 1062.14 230.108 1061.97 230.281C1061.8 230.449 1061.66 230.682 1061.56 230.981C1061.46 231.275 1061.41 231.653 1061.41 232.115L1060.41 231.688C1060.41 231.044 1060.53 230.461 1060.78 229.938C1061.03 229.415 1061.4 229 1061.88 228.692C1062.37 228.379 1062.97 228.223 1063.67 228.223C1064.23 228.223 1064.7 228.316 1065.06 228.503C1065.42 228.69 1065.71 228.928 1065.93 229.217C1066.14 229.506 1066.3 229.814 1066.4 230.141C1066.51 230.468 1066.57 230.778 1066.6 231.072C1066.63 231.361 1066.65 231.597 1066.65 231.779V236H1064.94ZM1059.7 236V228.44H1061.2V230.785H1061.41V236H1059.7ZM1072.11 236C1071.61 236.093 1071.12 236.133 1070.64 236.119C1070.16 236.11 1069.73 236.023 1069.36 235.86C1068.98 235.692 1068.69 235.428 1068.5 235.069C1068.32 234.742 1068.23 234.409 1068.22 234.068C1068.21 233.727 1068.21 233.342 1068.21 232.913V226.34H1069.89V232.815C1069.89 233.118 1069.89 233.384 1069.9 233.613C1069.9 233.842 1069.95 234.028 1070.04 234.173C1070.21 234.453 1070.48 234.609 1070.85 234.642C1071.22 234.675 1071.64 234.656 1072.11 234.586V236ZM1066.84 229.763V228.44H1072.11V229.763H1066.84ZM1075.99 236.21C1075.22 236.21 1074.55 236.044 1073.97 235.713C1073.39 235.382 1072.94 234.922 1072.61 234.334C1072.29 233.746 1072.13 233.069 1072.13 232.304C1072.13 231.478 1072.29 230.762 1072.61 230.155C1072.92 229.544 1073.36 229.07 1073.93 228.734C1074.49 228.398 1075.15 228.23 1075.89 228.23C1076.67 228.23 1077.34 228.414 1077.88 228.783C1078.43 229.147 1078.84 229.663 1079.11 230.33C1079.37 230.997 1079.48 231.784 1079.41 232.689H1077.74V232.073C1077.73 231.252 1077.59 230.652 1077.3 230.274C1077.02 229.896 1076.57 229.707 1075.96 229.707C1075.27 229.707 1074.75 229.922 1074.42 230.351C1074.08 230.776 1073.91 231.399 1073.91 232.22C1073.91 232.985 1074.08 233.578 1074.42 233.998C1074.75 234.418 1075.24 234.628 1075.89 234.628C1076.3 234.628 1076.66 234.537 1076.96 234.355C1077.26 234.168 1077.5 233.9 1077.66 233.55L1079.33 234.054C1079.04 234.735 1078.59 235.265 1077.98 235.643C1077.38 236.021 1076.71 236.21 1075.99 236.21ZM1073.38 232.689V231.415H1078.58V232.689H1073.38ZM1083.09 236.21C1082.16 236.21 1081.4 236 1080.82 235.58C1080.23 235.16 1079.88 234.57 1079.75 233.809L1081.47 233.543C1081.56 233.916 1081.76 234.21 1082.06 234.425C1082.37 234.64 1082.75 234.747 1083.21 234.747C1083.62 234.747 1083.93 234.668 1084.15 234.509C1084.37 234.346 1084.48 234.124 1084.48 233.844C1084.48 233.671 1084.44 233.534 1084.36 233.431C1084.28 233.324 1084.1 233.221 1083.83 233.123C1083.55 233.025 1083.13 232.901 1082.56 232.752C1081.92 232.584 1081.42 232.404 1081.05 232.213C1080.67 232.017 1080.41 231.786 1080.24 231.52C1080.08 231.254 1080 230.932 1080 230.554C1080 230.083 1080.12 229.672 1080.37 229.322C1080.62 228.972 1080.96 228.704 1081.4 228.517C1081.85 228.326 1082.37 228.23 1082.97 228.23C1083.56 228.23 1084.08 228.321 1084.53 228.503C1084.99 228.685 1085.36 228.944 1085.64 229.28C1085.92 229.616 1086.09 230.01 1086.16 230.463L1084.43 230.771C1084.39 230.449 1084.25 230.195 1083.99 230.008C1083.75 229.821 1083.42 229.716 1083 229.693C1082.6 229.67 1082.28 229.73 1082.04 229.875C1081.8 230.015 1081.68 230.213 1081.68 230.47C1081.68 230.615 1081.73 230.738 1081.82 230.841C1081.92 230.944 1082.12 231.046 1082.41 231.149C1082.71 231.252 1083.15 231.378 1083.74 231.527C1084.34 231.681 1084.82 231.858 1085.18 232.059C1085.55 232.255 1085.81 232.491 1085.97 232.766C1086.13 233.041 1086.21 233.375 1086.21 233.767C1086.21 234.528 1085.94 235.125 1085.38 235.559C1084.83 235.993 1084.07 236.21 1083.09 236.21ZM1091.38 236C1090.88 236.093 1090.39 236.133 1089.91 236.119C1089.43 236.11 1089 236.023 1088.63 235.86C1088.25 235.692 1087.96 235.428 1087.77 235.069C1087.59 234.742 1087.5 234.409 1087.49 234.068C1087.48 233.727 1087.48 233.342 1087.48 232.913V226.34H1089.16V232.815C1089.16 233.118 1089.16 233.384 1089.17 233.613C1089.17 233.842 1089.22 234.028 1089.31 234.173C1089.48 234.453 1089.75 234.609 1090.12 234.642C1090.49 234.675 1090.91 234.656 1091.38 234.586V236ZM1086.11 229.763V228.44H1091.38V229.763H1086.11ZM1095.12 236.21C1094.19 236.21 1093.43 236 1092.85 235.58C1092.26 235.16 1091.91 234.57 1091.78 233.809L1093.5 233.543C1093.59 233.916 1093.79 234.21 1094.09 234.425C1094.4 234.64 1094.78 234.747 1095.24 234.747C1095.65 234.747 1095.96 234.668 1096.18 234.509C1096.4 234.346 1096.51 234.124 1096.51 233.844C1096.51 233.671 1096.47 233.534 1096.39 233.431C1096.31 233.324 1096.13 233.221 1095.86 233.123C1095.58 233.025 1095.16 232.901 1094.59 232.752C1093.95 232.584 1093.45 232.404 1093.08 232.213C1092.7 232.017 1092.44 231.786 1092.27 231.52C1092.11 231.254 1092.03 230.932 1092.03 230.554C1092.03 230.083 1092.15 229.672 1092.4 229.322C1092.65 228.972 1092.99 228.704 1093.43 228.517C1093.88 228.326 1094.4 228.23 1095 228.23C1095.59 228.23 1096.11 228.321 1096.56 228.503C1097.02 228.685 1097.39 228.944 1097.67 229.28C1097.95 229.616 1098.12 230.01 1098.19 230.463L1096.47 230.771C1096.42 230.449 1096.28 230.195 1096.02 230.008C1095.78 229.821 1095.45 229.716 1095.03 229.693C1094.63 229.67 1094.31 229.73 1094.07 229.875C1093.83 230.015 1093.71 230.213 1093.71 230.47C1093.71 230.615 1093.76 230.738 1093.85 230.841C1093.95 230.944 1094.15 231.046 1094.44 231.149C1094.74 231.252 1095.18 231.378 1095.77 231.527C1096.37 231.681 1096.86 231.858 1097.21 232.059C1097.58 232.255 1097.84 232.491 1098 232.766C1098.16 233.041 1098.24 233.375 1098.24 233.767C1098.24 234.528 1097.97 235.125 1097.41 235.559C1096.86 235.993 1096.1 236.21 1095.12 236.21Z" fill="#051238"/>
<rect x="42" y="141" width="845" height="47" rx="23.5" fill="#00FF94"/>
<path d="M104.28 171V159.48H106.208V169.192H111.296V171H104.28ZM112.619 161.048V159.28H114.547V161.048H112.619ZM112.619 171V162.36H114.547V171H112.619ZM119.088 171L115.952 162.36H117.88L120.056 168.624L122.224 162.36H124.16L121.024 171H119.088ZM129.019 171.24C128.144 171.24 127.376 171.051 126.715 170.672C126.054 170.293 125.536 169.768 125.163 169.096C124.795 168.424 124.611 167.651 124.611 166.776C124.611 165.832 124.792 165.013 125.155 164.32C125.518 163.621 126.022 163.08 126.667 162.696C127.312 162.312 128.059 162.12 128.907 162.12C129.803 162.12 130.563 162.331 131.187 162.752C131.816 163.168 132.283 163.757 132.587 164.52C132.891 165.283 133.006 166.181 132.931 167.216H131.019V166.512C131.014 165.573 130.848 164.888 130.523 164.456C130.198 164.024 129.686 163.808 128.987 163.808C128.198 163.808 127.611 164.053 127.227 164.544C126.843 165.029 126.651 165.741 126.651 166.68C126.651 167.555 126.843 168.232 127.227 168.712C127.611 169.192 128.171 169.432 128.907 169.432C129.382 169.432 129.79 169.328 130.131 169.12C130.478 168.907 130.744 168.6 130.931 168.2L132.835 168.776C132.504 169.555 131.992 170.16 131.299 170.592C130.611 171.024 129.851 171.24 129.019 171.24ZM126.043 167.216V165.76H131.987V167.216H126.043ZM142.407 171.24C141.255 171.24 140.268 170.989 139.447 170.488C138.626 169.981 137.994 169.277 137.551 168.376C137.114 167.475 136.895 166.429 136.895 165.24C136.895 164.051 137.114 163.005 137.551 162.104C137.994 161.203 138.626 160.501 139.447 160C140.268 159.493 141.255 159.24 142.407 159.24C143.559 159.24 144.546 159.493 145.367 160C146.194 160.501 146.826 161.203 147.263 162.104C147.706 163.005 147.927 164.051 147.927 165.24C147.927 166.429 147.706 167.475 147.263 168.376C146.826 169.277 146.194 169.981 145.367 170.488C144.546 170.989 143.559 171.24 142.407 171.24ZM142.407 169.424C143.18 169.429 143.823 169.259 144.335 168.912C144.852 168.565 145.239 168.077 145.495 167.448C145.756 166.819 145.887 166.083 145.887 165.24C145.887 164.397 145.756 163.667 145.495 163.048C145.239 162.424 144.852 161.939 144.335 161.592C143.823 161.245 143.18 161.067 142.407 161.056C141.634 161.051 140.991 161.221 140.479 161.568C139.967 161.915 139.58 162.403 139.319 163.032C139.063 163.661 138.935 164.397 138.935 165.24C138.935 166.083 139.063 166.816 139.319 167.44C139.575 168.059 139.959 168.541 140.471 168.888C140.988 169.235 141.634 169.413 142.407 169.424ZM155.303 171V166.84C155.303 166.568 155.285 166.267 155.247 165.936C155.21 165.605 155.122 165.288 154.983 164.984C154.85 164.675 154.647 164.421 154.375 164.224C154.109 164.027 153.746 163.928 153.287 163.928C153.042 163.928 152.799 163.968 152.559 164.048C152.319 164.128 152.101 164.267 151.903 164.464C151.711 164.656 151.557 164.923 151.439 165.264C151.322 165.6 151.263 166.032 151.263 166.56L150.119 166.072C150.119 165.336 150.261 164.669 150.543 164.072C150.831 163.475 151.253 163 151.807 162.648C152.362 162.291 153.045 162.112 153.855 162.112C154.495 162.112 155.023 162.219 155.439 162.432C155.855 162.645 156.186 162.917 156.431 163.248C156.677 163.579 156.858 163.931 156.975 164.304C157.093 164.677 157.167 165.032 157.199 165.368C157.237 165.699 157.255 165.968 157.255 166.176V171H155.303ZM149.311 171V162.36H151.031V165.04H151.263V171H149.311ZM159.311 171V159.24H161.239V171H159.311ZM163.603 161.048V159.28H165.531V161.048H163.603ZM163.603 171V162.36H165.531V171H163.603ZM173.712 171V166.84C173.712 166.568 173.693 166.267 173.656 165.936C173.618 165.605 173.53 165.288 173.392 164.984C173.258 164.675 173.056 164.421 172.784 164.224C172.517 164.027 172.154 163.928 171.696 163.928C171.45 163.928 171.208 163.968 170.968 164.048C170.728 164.128 170.509 164.267 170.312 164.464C170.12 164.656 169.965 164.923 169.848 165.264C169.73 165.6 169.672 166.032 169.672 166.56L168.528 166.072C168.528 165.336 168.669 164.669 168.952 164.072C169.24 163.475 169.661 163 170.216 162.648C170.77 162.291 171.453 162.112 172.264 162.112C172.904 162.112 173.432 162.219 173.848 162.432C174.264 162.645 174.594 162.917 174.84 163.248C175.085 163.579 175.266 163.931 175.384 164.304C175.501 164.677 175.576 165.032 175.608 165.368C175.645 165.699 175.664 165.968 175.664 166.176V171H173.712ZM167.72 171V162.36H169.44V165.04H169.672V171H167.72ZM181.347 171.24C180.472 171.24 179.704 171.051 179.043 170.672C178.381 170.293 177.864 169.768 177.491 169.096C177.123 168.424 176.939 167.651 176.939 166.776C176.939 165.832 177.12 165.013 177.483 164.32C177.845 163.621 178.349 163.08 178.995 162.696C179.64 162.312 180.387 162.12 181.235 162.12C182.131 162.12 182.891 162.331 183.515 162.752C184.144 163.168 184.611 163.757 184.915 164.52C185.219 165.283 185.333 166.181 185.259 167.216H183.347V166.512C183.341 165.573 183.176 164.888 182.851 164.456C182.525 164.024 182.013 163.808 181.315 163.808C180.525 163.808 179.939 164.053 179.555 164.544C179.171 165.029 178.979 165.741 178.979 166.68C178.979 167.555 179.171 168.232 179.555 168.712C179.939 169.192 180.499 169.432 181.235 169.432C181.709 169.432 182.117 169.328 182.459 169.12C182.805 168.907 183.072 168.6 183.259 168.2L185.163 168.776C184.832 169.555 184.32 170.16 183.627 170.592C182.939 171.024 182.179 171.24 181.347 171.24ZM178.371 167.216V165.76H184.315V167.216H178.371ZM194.735 171.24C193.583 171.24 192.596 170.989 191.775 170.488C190.954 169.981 190.322 169.277 189.879 168.376C189.442 167.475 189.223 166.429 189.223 165.24C189.223 164.051 189.442 163.005 189.879 162.104C190.322 161.203 190.954 160.501 191.775 160C192.596 159.493 193.583 159.24 194.735 159.24C196.063 159.24 197.17 159.573 198.055 160.24C198.94 160.901 199.562 161.795 199.919 162.92L197.975 163.456C197.751 162.704 197.37 162.117 196.831 161.696C196.292 161.269 195.594 161.056 194.735 161.056C193.962 161.056 193.316 161.229 192.799 161.576C192.287 161.923 191.9 162.411 191.639 163.04C191.383 163.664 191.252 164.397 191.247 165.24C191.247 166.083 191.375 166.819 191.631 167.448C191.892 168.072 192.282 168.557 192.799 168.904C193.316 169.251 193.962 169.424 194.735 169.424C195.594 169.424 196.292 169.211 196.831 168.784C197.37 168.357 197.751 167.771 197.975 167.024L199.919 167.56C199.562 168.685 198.94 169.581 198.055 170.248C197.17 170.909 196.063 171.24 194.735 171.24ZM201.643 171V159.24H203.571V171H201.643ZM208.192 171.24C207.568 171.24 207.04 171.123 206.608 170.888C206.176 170.648 205.848 170.331 205.624 169.936C205.405 169.541 205.296 169.107 205.296 168.632C205.296 168.216 205.365 167.843 205.504 167.512C205.642 167.176 205.856 166.888 206.144 166.648C206.432 166.403 206.805 166.203 207.264 166.048C207.61 165.936 208.016 165.835 208.48 165.744C208.949 165.653 209.456 165.571 210 165.496C210.549 165.416 211.122 165.331 211.72 165.24L211.032 165.632C211.037 165.035 210.904 164.595 210.632 164.312C210.36 164.029 209.901 163.888 209.256 163.888C208.866 163.888 208.49 163.979 208.128 164.16C207.765 164.341 207.512 164.653 207.368 165.096L205.608 164.544C205.821 163.813 206.226 163.227 206.824 162.784C207.426 162.341 208.237 162.12 209.256 162.12C210.024 162.12 210.698 162.245 211.28 162.496C211.866 162.747 212.301 163.157 212.584 163.728C212.738 164.032 212.832 164.344 212.864 164.664C212.896 164.979 212.912 165.323 212.912 165.696V171H211.224V169.128L211.504 169.432C211.114 170.056 210.658 170.515 210.136 170.808C209.618 171.096 208.97 171.24 208.192 171.24ZM208.576 169.704C209.013 169.704 209.386 169.627 209.696 169.472C210.005 169.317 210.25 169.128 210.432 168.904C210.618 168.68 210.744 168.469 210.808 168.272C210.909 168.027 210.965 167.747 210.976 167.432C210.992 167.112 211 166.853 211 166.656L211.592 166.832C211.01 166.923 210.512 167.003 210.096 167.072C209.68 167.141 209.322 167.208 209.024 167.272C208.725 167.331 208.461 167.397 208.232 167.472C208.008 167.552 207.818 167.645 207.664 167.752C207.509 167.859 207.389 167.981 207.304 168.12C207.224 168.259 207.184 168.421 207.184 168.608C207.184 168.821 207.237 169.011 207.344 169.176C207.45 169.336 207.605 169.464 207.808 169.56C208.016 169.656 208.272 169.704 208.576 169.704ZM218.139 171.24C217.072 171.24 216.205 171 215.539 170.52C214.872 170.04 214.467 169.365 214.323 168.496L216.291 168.192C216.392 168.619 216.616 168.955 216.963 169.2C217.309 169.445 217.747 169.568 218.275 169.568C218.739 169.568 219.096 169.477 219.347 169.296C219.603 169.109 219.731 168.856 219.731 168.536C219.731 168.339 219.683 168.181 219.587 168.064C219.496 167.941 219.293 167.824 218.979 167.712C218.664 167.6 218.181 167.459 217.531 167.288C216.805 167.096 216.229 166.891 215.803 166.672C215.376 166.448 215.069 166.184 214.883 165.88C214.696 165.576 214.603 165.208 214.603 164.776C214.603 164.237 214.744 163.768 215.027 163.368C215.309 162.968 215.704 162.661 216.211 162.448C216.717 162.229 217.315 162.12 218.003 162.12C218.675 162.12 219.269 162.224 219.787 162.432C220.309 162.64 220.731 162.936 221.051 163.32C221.371 163.704 221.568 164.155 221.643 164.672L219.675 165.024C219.627 164.656 219.459 164.365 219.171 164.152C218.888 163.939 218.509 163.819 218.035 163.792C217.581 163.765 217.216 163.835 216.939 164C216.661 164.16 216.523 164.387 216.523 164.68C216.523 164.845 216.579 164.987 216.691 165.104C216.803 165.221 217.027 165.339 217.363 165.456C217.704 165.573 218.211 165.717 218.883 165.888C219.571 166.064 220.12 166.267 220.531 166.496C220.947 166.72 221.245 166.989 221.427 167.304C221.613 167.619 221.707 168 221.707 168.448C221.707 169.317 221.389 170 220.755 170.496C220.125 170.992 219.253 171.24 218.139 171.24ZM226.603 171.24C225.536 171.24 224.669 171 224.003 170.52C223.336 170.04 222.931 169.365 222.787 168.496L224.755 168.192C224.856 168.619 225.08 168.955 225.427 169.2C225.773 169.445 226.211 169.568 226.739 169.568C227.203 169.568 227.56 169.477 227.811 169.296C228.067 169.109 228.195 168.856 228.195 168.536C228.195 168.339 228.147 168.181 228.051 168.064C227.96 167.941 227.757 167.824 227.443 167.712C227.128 167.6 226.645 167.459 225.995 167.288C225.269 167.096 224.693 166.891 224.267 166.672C223.84 166.448 223.533 166.184 223.347 165.88C223.16 165.576 223.067 165.208 223.067 164.776C223.067 164.237 223.208 163.768 223.491 163.368C223.773 162.968 224.168 162.661 224.675 162.448C225.181 162.229 225.779 162.12 226.467 162.12C227.139 162.12 227.733 162.224 228.251 162.432C228.773 162.64 229.195 162.936 229.515 163.32C229.835 163.704 230.032 164.155 230.107 164.672L228.139 165.024C228.091 164.656 227.923 164.365 227.635 164.152C227.352 163.939 226.973 163.819 226.499 163.792C226.045 163.765 225.68 163.835 225.403 164C225.125 164.16 224.987 164.387 224.987 164.68C224.987 164.845 225.043 164.987 225.155 165.104C225.267 165.221 225.491 165.339 225.827 165.456C226.168 165.573 226.675 165.717 227.347 165.888C228.035 166.064 228.584 166.267 228.995 166.496C229.411 166.72 229.709 166.989 229.891 167.304C230.077 167.619 230.171 168 230.171 168.448C230.171 169.317 229.853 170 229.219 170.496C228.589 170.992 227.717 171.24 226.603 171.24ZM235.659 171.24C234.784 171.24 234.016 171.051 233.355 170.672C232.694 170.293 232.176 169.768 231.803 169.096C231.435 168.424 231.251 167.651 231.251 166.776C231.251 165.832 231.432 165.013 231.795 164.32C232.158 163.621 232.662 163.08 233.307 162.696C233.952 162.312 234.699 162.12 235.547 162.12C236.443 162.12 237.203 162.331 237.827 162.752C238.456 163.168 238.923 163.757 239.227 164.52C239.531 165.283 239.646 166.181 239.571 167.216H237.659V166.512C237.654 165.573 237.488 164.888 237.163 164.456C236.838 164.024 236.326 163.808 235.627 163.808C234.838 163.808 234.251 164.053 233.867 164.544C233.483 165.029 233.291 165.741 233.291 166.68C233.291 167.555 233.483 168.232 233.867 168.712C234.251 169.192 234.811 169.432 235.547 169.432C236.022 169.432 236.43 169.328 236.771 169.12C237.118 168.907 237.384 168.6 237.571 168.2L239.475 168.776C239.144 169.555 238.632 170.16 237.939 170.592C237.251 171.024 236.491 171.24 235.659 171.24ZM232.683 167.216V165.76H238.627V167.216H232.683ZM244.5 171.24C243.433 171.24 242.567 171 241.9 170.52C241.233 170.04 240.828 169.365 240.684 168.496L242.652 168.192C242.753 168.619 242.977 168.955 243.324 169.2C243.671 169.445 244.108 169.568 244.636 169.568C245.1 169.568 245.457 169.477 245.708 169.296C245.964 169.109 246.092 168.856 246.092 168.536C246.092 168.339 246.044 168.181 245.948 168.064C245.857 167.941 245.655 167.824 245.34 167.712C245.025 167.6 244.543 167.459 243.892 167.288C243.167 167.096 242.591 166.891 242.164 166.672C241.737 166.448 241.431 166.184 241.244 165.88C241.057 165.576 240.964 165.208 240.964 164.776C240.964 164.237 241.105 163.768 241.388 163.368C241.671 162.968 242.065 162.661 242.572 162.448C243.079 162.229 243.676 162.12 244.364 162.12C245.036 162.12 245.631 162.224 246.148 162.432C246.671 162.64 247.092 162.936 247.412 163.32C247.732 163.704 247.929 164.155 248.004 164.672L246.036 165.024C245.988 164.656 245.82 164.365 245.532 164.152C245.249 163.939 244.871 163.819 244.396 163.792C243.943 163.765 243.577 163.835 243.3 164C243.023 164.16 242.884 164.387 242.884 164.68C242.884 164.845 242.94 164.987 243.052 165.104C243.164 165.221 243.388 165.339 243.724 165.456C244.065 165.573 244.572 165.717 245.244 165.888C245.932 166.064 246.481 166.267 246.892 166.496C247.308 166.72 247.607 166.989 247.788 167.304C247.975 167.619 248.068 168 248.068 168.448C248.068 169.317 247.751 170 247.116 170.496C246.487 170.992 245.615 171.24 244.5 171.24ZM250.268 169.96V167.984H252.244V169.96H250.268ZM250.284 165.376V163.4H252.26V165.376H250.284ZM260.7 171V161.288H256.972V159.48H266.356V161.288H262.628V171H260.7ZM268.33 171L265.69 162.344L267.578 162.36L269.266 167.904L270.978 162.36H272.602L274.306 167.904L276.002 162.36H277.89L275.25 171H273.746L271.786 165.056L269.834 171H268.33ZM279.301 161.048V159.28H281.229V161.048H279.301ZM279.301 171V162.36H281.229V171H279.301ZM287.186 171.24C286.295 171.24 285.535 171.043 284.906 170.648C284.277 170.248 283.794 169.704 283.458 169.016C283.127 168.328 282.959 167.549 282.954 166.68C282.959 165.795 283.133 165.011 283.474 164.328C283.821 163.64 284.311 163.101 284.946 162.712C285.581 162.317 286.335 162.12 287.21 162.12C288.191 162.12 289.021 162.368 289.698 162.864C290.381 163.355 290.826 164.027 291.034 164.88L289.114 165.4C288.965 164.936 288.717 164.576 288.37 164.32C288.023 164.059 287.629 163.928 287.186 163.928C286.685 163.928 286.271 164.048 285.946 164.288C285.621 164.523 285.381 164.848 285.226 165.264C285.071 165.68 284.994 166.152 284.994 166.68C284.994 167.501 285.178 168.165 285.546 168.672C285.914 169.179 286.461 169.432 287.186 169.432C287.698 169.432 288.101 169.315 288.394 169.08C288.693 168.845 288.917 168.507 289.066 168.064L291.034 168.504C290.767 169.384 290.301 170.061 289.634 170.536C288.967 171.005 288.151 171.24 287.186 171.24ZM296.139 171.24C295.264 171.24 294.496 171.051 293.835 170.672C293.173 170.293 292.656 169.768 292.283 169.096C291.915 168.424 291.731 167.651 291.731 166.776C291.731 165.832 291.912 165.013 292.275 164.32C292.637 163.621 293.141 163.08 293.787 162.696C294.432 162.312 295.179 162.12 296.027 162.12C296.923 162.12 297.683 162.331 298.307 162.752C298.936 163.168 299.403 163.757 299.707 164.52C300.011 165.283 300.125 166.181 300.051 167.216H298.139V166.512C298.133 165.573 297.968 164.888 297.643 164.456C297.317 164.024 296.805 163.808 296.107 163.808C295.317 163.808 294.731 164.053 294.347 164.544C293.963 165.029 293.771 165.741 293.771 166.68C293.771 167.555 293.963 168.232 294.347 168.712C294.731 169.192 295.291 169.432 296.027 169.432C296.501 169.432 296.909 169.328 297.251 169.12C297.597 168.907 297.864 168.6 298.051 168.2L299.955 168.776C299.624 169.555 299.112 170.16 298.419 170.592C297.731 171.024 296.971 171.24 296.139 171.24ZM293.163 167.216V165.76H299.107V167.216H293.163ZM307.071 171.24C306.447 171.24 305.919 171.123 305.487 170.888C305.055 170.648 304.727 170.331 304.503 169.936C304.284 169.541 304.175 169.107 304.175 168.632C304.175 168.216 304.244 167.843 304.383 167.512C304.521 167.176 304.735 166.888 305.023 166.648C305.311 166.403 305.684 166.203 306.143 166.048C306.489 165.936 306.895 165.835 307.359 165.744C307.828 165.653 308.335 165.571 308.879 165.496C309.428 165.416 310.001 165.331 310.599 165.24L309.911 165.632C309.916 165.035 309.783 164.595 309.511 164.312C309.239 164.029 308.78 163.888 308.135 163.888C307.745 163.888 307.369 163.979 307.007 164.16C306.644 164.341 306.391 164.653 306.247 165.096L304.487 164.544C304.7 163.813 305.105 163.227 305.703 162.784C306.305 162.341 307.116 162.12 308.135 162.12C308.903 162.12 309.577 162.245 310.159 162.496C310.745 162.747 311.18 163.157 311.463 163.728C311.617 164.032 311.711 164.344 311.743 164.664C311.775 164.979 311.791 165.323 311.791 165.696V171H310.103V169.128L310.383 169.432C309.993 170.056 309.537 170.515 309.015 170.808C308.497 171.096 307.849 171.24 307.071 171.24ZM307.455 169.704C307.892 169.704 308.265 169.627 308.575 169.472C308.884 169.317 309.129 169.128 309.311 168.904C309.497 168.68 309.623 168.469 309.687 168.272C309.788 168.027 309.844 167.747 309.855 167.432C309.871 167.112 309.879 166.853 309.879 166.656L310.471 166.832C309.889 166.923 309.391 167.003 308.975 167.072C308.559 167.141 308.201 167.208 307.903 167.272C307.604 167.331 307.34 167.397 307.111 167.472C306.887 167.552 306.697 167.645 306.543 167.752C306.388 167.859 306.268 167.981 306.183 168.12C306.103 168.259 306.063 168.421 306.063 168.608C306.063 168.821 306.116 169.011 306.223 169.176C306.329 169.336 306.484 169.464 306.687 169.56C306.895 169.656 307.151 169.704 307.455 169.704ZM319.125 171L315.757 159.48H317.781L320.077 167.8L322.365 159.496L324.389 159.48L326.685 167.8L328.973 159.48H330.997L327.637 171H325.733L323.373 162.808L321.029 171H319.125ZM335.085 171.24C334.21 171.24 333.442 171.051 332.781 170.672C332.12 170.293 331.602 169.768 331.229 169.096C330.861 168.424 330.677 167.651 330.677 166.776C330.677 165.832 330.858 165.013 331.221 164.32C331.584 163.621 332.088 163.08 332.733 162.696C333.378 162.312 334.125 162.12 334.973 162.12C335.869 162.12 336.629 162.331 337.253 162.752C337.882 163.168 338.349 163.757 338.653 164.52C338.957 165.283 339.072 166.181 338.997 167.216H337.085V166.512C337.08 165.573 336.914 164.888 336.589 164.456C336.264 164.024 335.752 163.808 335.053 163.808C334.264 163.808 333.677 164.053 333.293 164.544C332.909 165.029 332.717 165.741 332.717 166.68C332.717 167.555 332.909 168.232 333.293 168.712C333.677 169.192 334.237 169.432 334.973 169.432C335.448 169.432 335.856 169.328 336.197 169.12C336.544 168.907 336.81 168.6 336.997 168.2L338.901 168.776C338.57 169.555 338.058 170.16 337.365 170.592C336.677 171.024 335.917 171.24 335.085 171.24ZM332.109 167.216V165.76H338.053V167.216H332.109ZM344.518 171.24C343.643 171.24 342.875 171.051 342.214 170.672C341.553 170.293 341.035 169.768 340.662 169.096C340.294 168.424 340.11 167.651 340.11 166.776C340.11 165.832 340.291 165.013 340.654 164.32C341.017 163.621 341.521 163.08 342.166 162.696C342.811 162.312 343.558 162.12 344.406 162.12C345.302 162.12 346.062 162.331 346.686 162.752C347.315 163.168 347.782 163.757 348.086 164.52C348.39 165.283 348.505 166.181 348.43 167.216H346.518V166.512C346.513 165.573 346.347 164.888 346.022 164.456C345.697 164.024 345.185 163.808 344.486 163.808C343.697 163.808 343.11 164.053 342.726 164.544C342.342 165.029 342.15 165.741 342.15 166.68C342.15 167.555 342.342 168.232 342.726 168.712C343.11 169.192 343.67 169.432 344.406 169.432C344.881 169.432 345.289 169.328 345.63 169.12C345.977 168.907 346.243 168.6 346.43 168.2L348.334 168.776C348.003 169.555 347.491 170.16 346.798 170.592C346.11 171.024 345.35 171.24 344.518 171.24ZM341.542 167.216V165.76H347.486V167.216H341.542ZM350.007 171L350.023 159.48H351.975V166.52L355.135 162.36H357.543L354.191 166.68L357.831 171H355.279L351.975 166.84V171H350.007ZM365.499 173.568C364.875 172.843 364.342 172.021 363.899 171.104C363.457 170.192 363.121 169.235 362.891 168.232C362.662 167.229 362.555 166.232 362.571 165.24C362.555 164.248 362.662 163.251 362.891 162.248C363.121 161.24 363.457 160.28 363.899 159.368C364.342 158.456 364.875 157.637 365.499 156.912L366.923 157.968C366.283 158.741 365.771 159.523 365.387 160.312C365.009 161.101 364.737 161.907 364.571 162.728C364.406 163.544 364.321 164.381 364.315 165.24C364.321 166.099 364.406 166.939 364.571 167.76C364.742 168.576 365.017 169.381 365.395 170.176C365.774 170.965 366.283 171.741 366.923 172.504L365.499 173.568ZM368.189 170.984V169.304L373.117 164.912C373.501 164.571 373.768 164.248 373.917 163.944C374.067 163.64 374.141 163.347 374.141 163.064C374.141 162.68 374.059 162.339 373.893 162.04C373.728 161.736 373.499 161.496 373.205 161.32C372.917 161.144 372.584 161.056 372.205 161.056C371.805 161.056 371.451 161.149 371.141 161.336C370.837 161.517 370.6 161.76 370.429 162.064C370.259 162.368 370.179 162.696 370.189 163.048H368.205C368.205 162.28 368.376 161.611 368.717 161.04C369.064 160.469 369.539 160.027 370.141 159.712C370.749 159.397 371.451 159.24 372.245 159.24C372.981 159.24 373.643 159.405 374.229 159.736C374.816 160.061 375.277 160.515 375.613 161.096C375.949 161.672 376.117 162.336 376.117 163.088C376.117 163.637 376.043 164.099 375.893 164.472C375.744 164.845 375.52 165.189 375.221 165.504C374.928 165.819 374.563 166.168 374.125 166.552L370.629 169.648L370.453 169.168H376.117V170.984H368.189ZM386.836 171V166.84C386.836 166.568 386.817 166.267 386.78 165.936C386.742 165.605 386.654 165.288 386.516 164.984C386.382 164.675 386.18 164.421 385.908 164.224C385.641 164.027 385.278 163.928 384.82 163.928C384.574 163.928 384.332 163.968 384.092 164.048C383.852 164.128 383.633 164.267 383.436 164.464C383.244 164.656 383.089 164.923 382.972 165.264C382.854 165.6 382.796 166.032 382.796 166.56L381.652 166.072C381.652 165.336 381.793 164.669 382.076 164.072C382.364 163.475 382.785 163 383.34 162.648C383.894 162.291 384.577 162.112 385.388 162.112C386.028 162.112 386.556 162.219 386.972 162.432C387.388 162.645 387.718 162.917 387.964 163.248C388.209 163.579 388.39 163.931 388.508 164.304C388.625 164.677 388.7 165.032 388.732 165.368C388.769 165.699 388.788 165.968 388.788 166.176V171H386.836ZM380.844 171V159.48H382.564V165.544H382.796V171H380.844ZM394.499 171.24C393.635 171.24 392.881 171.045 392.235 170.656C391.59 170.267 391.089 169.731 390.731 169.048C390.379 168.36 390.203 167.571 390.203 166.68C390.203 165.773 390.385 164.979 390.747 164.296C391.11 163.613 391.614 163.08 392.259 162.696C392.905 162.312 393.651 162.12 394.499 162.12C395.369 162.12 396.126 162.315 396.771 162.704C397.417 163.093 397.918 163.632 398.275 164.32C398.633 165.003 398.811 165.789 398.811 166.68C398.811 167.576 398.63 168.368 398.267 169.056C397.91 169.739 397.409 170.275 396.763 170.664C396.118 171.048 395.363 171.24 394.499 171.24ZM394.499 169.432C395.267 169.432 395.838 169.176 396.211 168.664C396.585 168.152 396.771 167.491 396.771 166.68C396.771 165.843 396.582 165.176 396.203 164.68C395.825 164.179 395.257 163.928 394.499 163.928C393.982 163.928 393.555 164.045 393.219 164.28C392.889 164.509 392.643 164.832 392.483 165.248C392.323 165.659 392.243 166.136 392.243 166.68C392.243 167.517 392.433 168.187 392.811 168.688C393.195 169.184 393.758 169.432 394.499 169.432ZM403.622 171.248C402.982 171.248 402.454 171.141 402.038 170.928C401.622 170.715 401.291 170.443 401.046 170.112C400.801 169.781 400.619 169.429 400.502 169.056C400.385 168.683 400.307 168.331 400.27 168C400.238 167.664 400.222 167.392 400.222 167.184V162.36H402.174V166.52C402.174 166.787 402.193 167.088 402.23 167.424C402.267 167.755 402.353 168.075 402.486 168.384C402.625 168.688 402.827 168.939 403.094 169.136C403.366 169.333 403.731 169.432 404.19 169.432C404.435 169.432 404.678 169.392 404.918 169.312C405.158 169.232 405.374 169.096 405.566 168.904C405.763 168.707 405.921 168.437 406.038 168.096C406.155 167.755 406.214 167.323 406.214 166.8L407.358 167.288C407.358 168.024 407.214 168.691 406.926 169.288C406.643 169.885 406.225 170.363 405.67 170.72C405.115 171.072 404.433 171.248 403.622 171.248ZM406.446 171V168.32H406.214V162.36H408.15V171H406.446ZM410.206 171V162.36H411.91V164.464L411.702 164.192C411.808 163.904 411.95 163.643 412.126 163.408C412.307 163.168 412.523 162.971 412.774 162.816C412.987 162.672 413.222 162.56 413.478 162.48C413.739 162.395 414.006 162.344 414.278 162.328C414.55 162.307 414.814 162.317 415.07 162.36V164.16C414.814 164.085 414.518 164.061 414.182 164.088C413.851 164.115 413.552 164.208 413.286 164.368C413.019 164.512 412.8 164.696 412.63 164.92C412.464 165.144 412.342 165.4 412.262 165.688C412.182 165.971 412.142 166.277 412.142 166.608V171H410.206ZM419.428 171.24C418.361 171.24 417.494 171 416.828 170.52C416.161 170.04 415.756 169.365 415.612 168.496L417.58 168.192C417.681 168.619 417.905 168.955 418.252 169.2C418.598 169.445 419.036 169.568 419.564 169.568C420.028 169.568 420.385 169.477 420.636 169.296C420.892 169.109 421.02 168.856 421.02 168.536C421.02 168.339 420.972 168.181 420.876 168.064C420.785 167.941 420.582 167.824 420.268 167.712C419.953 167.6 419.47 167.459 418.82 167.288C418.094 167.096 417.518 166.891 417.092 166.672C416.665 166.448 416.358 166.184 416.172 165.88C415.985 165.576 415.892 165.208 415.892 164.776C415.892 164.237 416.033 163.768 416.316 163.368C416.598 162.968 416.993 162.661 417.5 162.448C418.006 162.229 418.604 162.12 419.292 162.12C419.964 162.12 420.558 162.224 421.076 162.432C421.598 162.64 422.02 162.936 422.34 163.32C422.66 163.704 422.857 164.155 422.932 164.672L420.964 165.024C420.916 164.656 420.748 164.365 420.46 164.152C420.177 163.939 419.798 163.819 419.324 163.792C418.87 163.765 418.505 163.835 418.228 164C417.95 164.16 417.812 164.387 417.812 164.68C417.812 164.845 417.868 164.987 417.98 165.104C418.092 165.221 418.316 165.339 418.652 165.456C418.993 165.573 419.5 165.717 420.172 165.888C420.86 166.064 421.409 166.267 421.82 166.496C422.236 166.72 422.534 166.989 422.716 167.304C422.902 167.619 422.996 168 422.996 168.448C422.996 169.317 422.678 170 422.044 170.496C421.414 170.992 420.542 171.24 419.428 171.24ZM431.495 171.24C430.62 171.24 429.852 171.051 429.191 170.672C428.53 170.293 428.012 169.768 427.639 169.096C427.271 168.424 427.087 167.651 427.087 166.776C427.087 165.832 427.268 165.013 427.631 164.32C427.994 163.621 428.498 163.08 429.143 162.696C429.788 162.312 430.535 162.12 431.383 162.12C432.279 162.12 433.039 162.331 433.663 162.752C434.292 163.168 434.759 163.757 435.063 164.52C435.367 165.283 435.482 166.181 435.407 167.216H433.495V166.512C433.49 165.573 433.324 164.888 432.999 164.456C432.674 164.024 432.162 163.808 431.463 163.808C430.674 163.808 430.087 164.053 429.703 164.544C429.319 165.029 429.127 165.741 429.127 166.68C429.127 167.555 429.319 168.232 429.703 168.712C430.087 169.192 430.647 169.432 431.383 169.432C431.858 169.432 432.266 169.328 432.607 169.12C432.954 168.907 433.22 168.6 433.407 168.2L435.311 168.776C434.98 169.555 434.468 170.16 433.775 170.592C433.087 171.024 432.327 171.24 431.495 171.24ZM428.519 167.216V165.76H434.463V167.216H428.519ZM439.26 171.24C438.636 171.24 438.108 171.123 437.676 170.888C437.244 170.648 436.916 170.331 436.692 169.936C436.473 169.541 436.364 169.107 436.364 168.632C436.364 168.216 436.433 167.843 436.572 167.512C436.711 167.176 436.924 166.888 437.212 166.648C437.5 166.403 437.873 166.203 438.332 166.048C438.679 165.936 439.084 165.835 439.548 165.744C440.017 165.653 440.524 165.571 441.068 165.496C441.617 165.416 442.191 165.331 442.788 165.24L442.1 165.632C442.105 165.035 441.972 164.595 441.7 164.312C441.428 164.029 440.969 163.888 440.324 163.888C439.935 163.888 439.559 163.979 439.196 164.16C438.833 164.341 438.58 164.653 438.436 165.096L436.676 164.544C436.889 163.813 437.295 163.227 437.892 162.784C438.495 162.341 439.305 162.12 440.324 162.12C441.092 162.12 441.767 162.245 442.348 162.496C442.935 162.747 443.369 163.157 443.652 163.728C443.807 164.032 443.9 164.344 443.932 164.664C443.964 164.979 443.98 165.323 443.98 165.696V171H442.292V169.128L442.572 169.432C442.183 170.056 441.727 170.515 441.204 170.808C440.687 171.096 440.039 171.24 439.26 171.24ZM439.644 169.704C440.081 169.704 440.455 169.627 440.764 169.472C441.073 169.317 441.319 169.128 441.5 168.904C441.687 168.68 441.812 168.469 441.876 168.272C441.977 168.027 442.033 167.747 442.044 167.432C442.06 167.112 442.068 166.853 442.068 166.656L442.66 166.832C442.079 166.923 441.58 167.003 441.164 167.072C440.748 167.141 440.391 167.208 440.092 167.272C439.793 167.331 439.529 167.397 439.3 167.472C439.076 167.552 438.887 167.645 438.732 167.752C438.577 167.859 438.457 167.981 438.372 168.12C438.292 168.259 438.252 168.421 438.252 168.608C438.252 168.821 438.305 169.011 438.412 169.176C438.519 169.336 438.673 169.464 438.876 169.56C439.084 169.656 439.34 169.704 439.644 169.704ZM449.623 171.24C448.732 171.24 447.972 171.043 447.343 170.648C446.713 170.248 446.231 169.704 445.895 169.016C445.564 168.328 445.396 167.549 445.391 166.68C445.396 165.795 445.569 165.011 445.911 164.328C446.257 163.64 446.748 163.101 447.383 162.712C448.017 162.317 448.772 162.12 449.647 162.12C450.628 162.12 451.457 162.368 452.135 162.864C452.817 163.355 453.263 164.027 453.471 164.88L451.551 165.4C451.401 164.936 451.153 164.576 450.807 164.32C450.46 164.059 450.065 163.928 449.623 163.928C449.121 163.928 448.708 164.048 448.383 164.288C448.057 164.523 447.817 164.848 447.663 165.264C447.508 165.68 447.431 166.152 447.431 166.68C447.431 167.501 447.615 168.165 447.983 168.672C448.351 169.179 448.897 169.432 449.623 169.432C450.135 169.432 450.537 169.315 450.831 169.08C451.129 168.845 451.353 168.507 451.503 168.064L453.471 168.504C453.204 169.384 452.737 170.061 452.071 170.536C451.404 171.005 450.588 171.24 449.623 171.24ZM460.858 171V166.84C460.858 166.568 460.839 166.267 460.802 165.936C460.764 165.605 460.676 165.288 460.538 164.984C460.404 164.675 460.202 164.421 459.93 164.224C459.663 164.027 459.3 163.928 458.842 163.928C458.596 163.928 458.354 163.968 458.114 164.048C457.874 164.128 457.655 164.267 457.458 164.464C457.266 164.656 457.111 164.923 456.994 165.264C456.876 165.6 456.818 166.032 456.818 166.56L455.674 166.072C455.674 165.336 455.815 164.669 456.098 164.072C456.386 163.475 456.807 163 457.362 162.648C457.916 162.291 458.599 162.112 459.41 162.112C460.05 162.112 460.578 162.219 460.994 162.432C461.41 162.645 461.74 162.917 461.986 163.248C462.231 163.579 462.412 163.931 462.53 164.304C462.647 164.677 462.722 165.032 462.754 165.368C462.791 165.699 462.81 165.968 462.81 166.176V171H460.858ZM454.866 171V159.48H456.586V165.544H456.818V171H454.866ZM465.353 174.048L463.929 172.984C464.569 172.221 465.078 171.445 465.457 170.656C465.836 169.861 466.108 169.056 466.273 168.24C466.444 167.419 466.532 166.579 466.537 165.72C466.532 164.861 466.446 164.024 466.281 163.208C466.116 162.387 465.841 161.581 465.457 160.792C465.078 160.003 464.569 159.221 463.929 158.448L465.353 157.392C465.977 158.117 466.51 158.936 466.953 159.848C467.396 160.76 467.732 161.72 467.961 162.728C468.19 163.731 468.297 164.728 468.281 165.72C468.297 166.712 468.19 167.709 467.961 168.712C467.732 169.715 467.396 170.672 466.953 171.584C466.51 172.501 465.977 173.323 465.353 174.048Z" fill="#051238"/>
<path d="M87.1224 170.958V162.046L75.4974 168.375L61.2891 160.625L75.4974 152.875L89.7057 160.625V170.958H87.1224ZM75.4974 176.125L66.4557 171.217V164.758L75.4974 169.667L84.5391 164.758V171.217L75.4974 176.125Z" fill="#051238"/>
<path d="M976.5 235.833H983.625" stroke="#1E2A4C" stroke-width="2" stroke-linecap="round" stroke-linejoin="round"/>
<path d="M980.063 222.771C980.377 222.456 980.805 222.279 981.25 222.279C981.471 222.279 981.689 222.322 981.893 222.407C982.096 222.491 982.282 222.615 982.438 222.771C982.593 222.927 982.717 223.112 982.802 223.316C982.886 223.52 982.929 223.738 982.929 223.958C982.929 224.179 982.886 224.397 982.802 224.601C982.717 224.805 982.593 224.99 982.438 225.146L972.542 235.042L969.375 235.833L970.167 232.667L980.063 222.771Z" stroke="#1E2A4C" stroke-width="2" stroke-linecap="round" stroke-linejoin="round"/>
<path d="M64.26 84V71.04H66.213L70.695 80.22L75.177 71.04H77.13V84H75.105V75.693L71.127 84H70.263L66.294 75.693V84H64.26ZM83.7354 84.27C82.7634 84.27 81.9144 84.051 81.1884 83.613C80.4624 83.175 79.8984 82.572 79.4964 81.804C79.1004 81.03 78.9024 80.142 78.9024 79.14C78.9024 78.12 79.1064 77.226 79.5144 76.458C79.9224 75.69 80.4894 75.09 81.2154 74.658C81.9414 74.226 82.7814 74.01 83.7354 74.01C84.7134 74.01 85.5654 74.229 86.2914 74.667C87.0174 75.105 87.5814 75.711 87.9834 76.485C88.3854 77.253 88.5864 78.138 88.5864 79.14C88.5864 80.148 88.3824 81.039 87.9744 81.813C87.5724 82.581 87.0084 83.184 86.2824 83.622C85.5564 84.054 84.7074 84.27 83.7354 84.27ZM83.7354 82.236C84.5994 82.236 85.2414 81.948 85.6614 81.372C86.0814 80.796 86.2914 80.052 86.2914 79.14C86.2914 78.198 86.0784 77.448 85.6524 76.89C85.2264 76.326 84.5874 76.044 83.7354 76.044C83.1534 76.044 82.6734 76.176 82.2954 76.44C81.9234 76.698 81.6474 77.061 81.4674 77.529C81.2874 77.991 81.1974 78.528 81.1974 79.14C81.1974 80.082 81.4104 80.835 81.8364 81.399C82.2684 81.957 82.9014 82.236 83.7354 82.236ZM97.0764 84V79.32C97.0764 79.014 97.0554 78.675 97.0134 78.303C96.9714 77.931 96.8724 77.574 96.7164 77.232C96.5664 76.884 96.3384 76.599 96.0324 76.377C95.7324 76.155 95.3244 76.044 94.8084 76.044C94.5324 76.044 94.2594 76.089 93.9894 76.179C93.7194 76.269 93.4734 76.425 93.2514 76.647C93.0354 76.863 92.8614 77.163 92.7294 77.547C92.5974 77.925 92.5314 78.411 92.5314 79.005L91.2444 78.456C91.2444 77.628 91.4034 76.878 91.7214 76.206C92.0454 75.534 92.5194 75 93.1434 74.604C93.7674 74.202 94.5354 74.001 95.4474 74.001C96.1674 74.001 96.7614 74.121 97.2294 74.361C97.6974 74.601 98.0694 74.907 98.3454 75.279C98.6214 75.651 98.8254 76.047 98.9574 76.467C99.0894 76.887 99.1734 77.286 99.2094 77.664C99.2514 78.036 99.2724 78.339 99.2724 78.573V84H97.0764ZM90.3354 84V74.28H92.2704V77.295H92.5314V84H90.3354ZM107.102 84C106.46 84.12 105.83 84.171 105.212 84.153C104.6 84.141 104.051 84.03 103.565 83.82C103.079 83.604 102.71 83.265 102.458 82.803C102.236 82.383 102.119 81.954 102.107 81.516C102.095 81.078 102.089 80.583 102.089 80.031V71.58H104.249V79.905C104.249 80.295 104.252 80.637 104.258 80.931C104.27 81.225 104.333 81.465 104.447 81.651C104.663 82.011 105.008 82.212 105.482 82.254C105.956 82.296 106.496 82.272 107.102 82.182V84ZM100.325 75.981V74.28H107.102V75.981H100.325ZM115.699 84V79.32C115.699 79.014 115.678 78.675 115.636 78.303C115.594 77.931 115.495 77.574 115.339 77.232C115.189 76.884 114.961 76.599 114.655 76.377C114.355 76.155 113.947 76.044 113.431 76.044C113.155 76.044 112.882 76.089 112.612 76.179C112.342 76.269 112.096 76.425 111.874 76.647C111.658 76.863 111.484 77.163 111.352 77.547C111.22 77.925 111.154 78.411 111.154 79.005L109.867 78.456C109.867 77.628 110.026 76.878 110.344 76.206C110.668 75.534 111.142 75 111.766 74.604C112.39 74.202 113.158 74.001 114.07 74.001C114.79 74.001 115.384 74.121 115.852 74.361C116.32 74.601 116.692 74.907 116.968 75.279C117.244 75.651 117.448 76.047 117.58 76.467C117.712 76.887 117.796 77.286 117.832 77.664C117.874 78.036 117.895 78.339 117.895 78.573V84H115.699ZM108.958 84V71.04H110.893V77.862H111.154V84H108.958ZM125.665 84V73.407L123.235 74.892V72.498L125.665 71.04H127.879V84H125.665Z" fill="#051238" fill-opacity="0.9"/>
<path d="M167.26 84V71.04H169.213L173.695 80.22L178.177 71.04H180.13V84H178.105V75.693L174.127 84H173.263L169.294 75.693V84H167.26ZM186.735 84.27C185.763 84.27 184.914 84.051 184.188 83.613C183.462 83.175 182.898 82.572 182.496 81.804C182.1 81.03 181.902 80.142 181.902 79.14C181.902 78.12 182.106 77.226 182.514 76.458C182.922 75.69 183.489 75.09 184.215 74.658C184.941 74.226 185.781 74.01 186.735 74.01C187.713 74.01 188.565 74.229 189.291 74.667C190.017 75.105 190.581 75.711 190.983 76.485C191.385 77.253 191.586 78.138 191.586 79.14C191.586 80.148 191.382 81.039 190.974 81.813C190.572 82.581 190.008 83.184 189.282 83.622C188.556 84.054 187.707 84.27 186.735 84.27ZM186.735 82.236C187.599 82.236 188.241 81.948 188.661 81.372C189.081 80.796 189.291 80.052 189.291 79.14C189.291 78.198 189.078 77.448 188.652 76.89C188.226 76.326 187.587 76.044 186.735 76.044C186.153 76.044 185.673 76.176 185.295 76.44C184.923 76.698 184.647 77.061 184.467 77.529C184.287 77.991 184.197 78.528 184.197 79.14C184.197 80.082 184.41 80.835 184.836 81.399C185.268 81.957 185.901 82.236 186.735 82.236ZM200.076 84V79.32C200.076 79.014 200.055 78.675 200.013 78.303C199.971 77.931 199.872 77.574 199.716 77.232C199.566 76.884 199.338 76.599 199.032 76.377C198.732 76.155 198.324 76.044 197.808 76.044C197.532 76.044 197.259 76.089 196.989 76.179C196.719 76.269 196.473 76.425 196.251 76.647C196.035 76.863 195.861 77.163 195.729 77.547C195.597 77.925 195.531 78.411 195.531 79.005L194.244 78.456C194.244 77.628 194.403 76.878 194.721 76.206C195.045 75.534 195.519 75 196.143 74.604C196.767 74.202 197.535 74.001 198.447 74.001C199.167 74.001 199.761 74.121 200.229 74.361C200.697 74.601 201.069 74.907 201.345 75.279C201.621 75.651 201.825 76.047 201.957 76.467C202.089 76.887 202.173 77.286 202.209 77.664C202.251 78.036 202.272 78.339 202.272 78.573V84H200.076ZM193.335 84V74.28H195.27V77.295H195.531V84H193.335ZM210.102 84C209.46 84.12 208.83 84.171 208.212 84.153C207.6 84.141 207.051 84.03 206.565 83.82C206.079 83.604 205.71 83.265 205.458 82.803C205.236 82.383 205.119 81.954 205.107 81.516C205.095 81.078 205.089 80.583 205.089 80.031V71.58H207.249V79.905C207.249 80.295 207.252 80.637 207.258 80.931C207.27 81.225 207.333 81.465 207.447 81.651C207.663 82.011 208.008 82.212 208.482 82.254C208.956 82.296 209.496 82.272 210.102 82.182V84ZM203.325 75.981V74.28H210.102V75.981H203.325ZM218.699 84V79.32C218.699 79.014 218.678 78.675 218.636 78.303C218.594 77.931 218.495 77.574 218.339 77.232C218.189 76.884 217.961 76.599 217.655 76.377C217.355 76.155 216.947 76.044 216.431 76.044C216.155 76.044 215.882 76.089 215.612 76.179C215.342 76.269 215.096 76.425 214.874 76.647C214.658 76.863 214.484 77.163 214.352 77.547C214.22 77.925 214.154 78.411 214.154 79.005L212.867 78.456C212.867 77.628 213.026 76.878 213.344 76.206C213.668 75.534 214.142 75 214.766 74.604C215.39 74.202 216.158 74.001 217.07 74.001C217.79 74.001 218.384 74.121 218.852 74.361C219.32 74.601 219.692 74.907 219.968 75.279C220.244 75.651 220.448 76.047 220.58 76.467C220.712 76.887 220.796 77.286 220.832 77.664C220.874 78.036 220.895 78.339 220.895 78.573V84H218.699ZM211.958 84V71.04H213.893V77.862H214.154V84H211.958ZM226.055 83.982V82.092L231.599 77.151C232.031 76.767 232.331 76.404 232.499 76.062C232.667 75.72 232.751 75.39 232.751 75.072C232.751 74.64 232.658 74.256 232.472 73.92C232.286 73.578 232.028 73.308 231.698 73.11C231.374 72.912 230.999 72.813 230.573 72.813C230.123 72.813 229.724 72.918 229.376 73.128C229.034 73.332 228.767 73.605 228.575 73.947C228.383 74.289 228.293 74.658 228.305 75.054H226.073C226.073 74.19 226.265 73.437 226.649 72.795C227.039 72.153 227.573 71.655 228.251 71.301C228.935 70.947 229.724 70.77 230.618 70.77C231.446 70.77 232.19 70.956 232.85 71.328C233.51 71.694 234.029 72.204 234.407 72.858C234.785 73.506 234.974 74.253 234.974 75.099C234.974 75.717 234.89 76.236 234.722 76.656C234.554 77.076 234.302 77.463 233.966 77.817C233.636 78.171 233.225 78.564 232.733 78.996L228.8 82.479L228.602 81.939H234.974V83.982H226.055Z" fill="#051238" fill-opacity="0.9"/>
<path d="M272.26 84V71.04H274.213L278.695 80.22L283.177 71.04H285.13V84H283.105V75.693L279.127 84H278.263L274.294 75.693V84H272.26ZM291.735 84.27C290.763 84.27 289.914 84.051 289.188 83.613C288.462 83.175 287.898 82.572 287.496 81.804C287.1 81.03 286.902 80.142 286.902 79.14C286.902 78.12 287.106 77.226 287.514 76.458C287.922 75.69 288.489 75.09 289.215 74.658C289.941 74.226 290.781 74.01 291.735 74.01C292.713 74.01 293.565 74.229 294.291 74.667C295.017 75.105 295.581 75.711 295.983 76.485C296.385 77.253 296.586 78.138 296.586 79.14C296.586 80.148 296.382 81.039 295.974 81.813C295.572 82.581 295.008 83.184 294.282 83.622C293.556 84.054 292.707 84.27 291.735 84.27ZM291.735 82.236C292.599 82.236 293.241 81.948 293.661 81.372C294.081 80.796 294.291 80.052 294.291 79.14C294.291 78.198 294.078 77.448 293.652 76.89C293.226 76.326 292.587 76.044 291.735 76.044C291.153 76.044 290.673 76.176 290.295 76.44C289.923 76.698 289.647 77.061 289.467 77.529C289.287 77.991 289.197 78.528 289.197 79.14C289.197 80.082 289.41 80.835 289.836 81.399C290.268 81.957 290.901 82.236 291.735 82.236ZM305.076 84V79.32C305.076 79.014 305.055 78.675 305.013 78.303C304.971 77.931 304.872 77.574 304.716 77.232C304.566 76.884 304.338 76.599 304.032 76.377C303.732 76.155 303.324 76.044 302.808 76.044C302.532 76.044 302.259 76.089 301.989 76.179C301.719 76.269 301.473 76.425 301.251 76.647C301.035 76.863 300.861 77.163 300.729 77.547C300.597 77.925 300.531 78.411 300.531 79.005L299.244 78.456C299.244 77.628 299.403 76.878 299.721 76.206C300.045 75.534 300.519 75 301.143 74.604C301.767 74.202 302.535 74.001 303.447 74.001C304.167 74.001 304.761 74.121 305.229 74.361C305.697 74.601 306.069 74.907 306.345 75.279C306.621 75.651 306.825 76.047 306.957 76.467C307.089 76.887 307.173 77.286 307.209 77.664C307.251 78.036 307.272 78.339 307.272 78.573V84H305.076ZM298.335 84V74.28H300.27V77.295H300.531V84H298.335ZM315.102 84C314.46 84.12 313.83 84.171 313.212 84.153C312.6 84.141 312.051 84.03 311.565 83.82C311.079 83.604 310.71 83.265 310.458 82.803C310.236 82.383 310.119 81.954 310.107 81.516C310.095 81.078 310.089 80.583 310.089 80.031V71.58H312.249V79.905C312.249 80.295 312.252 80.637 312.258 80.931C312.27 81.225 312.333 81.465 312.447 81.651C312.663 82.011 313.008 82.212 313.482 82.254C313.956 82.296 314.496 82.272 315.102 82.182V84ZM308.325 75.981V74.28H315.102V75.981H308.325ZM323.699 84V79.32C323.699 79.014 323.678 78.675 323.636 78.303C323.594 77.931 323.495 77.574 323.339 77.232C323.189 76.884 322.961 76.599 322.655 76.377C322.355 76.155 321.947 76.044 321.431 76.044C321.155 76.044 320.882 76.089 320.612 76.179C320.342 76.269 320.096 76.425 319.874 76.647C319.658 76.863 319.484 77.163 319.352 77.547C319.22 77.925 319.154 78.411 319.154 79.005L317.867 78.456C317.867 77.628 318.026 76.878 318.344 76.206C318.668 75.534 319.142 75 319.766 74.604C320.39 74.202 321.158 74.001 322.07 74.001C322.79 74.001 323.384 74.121 323.852 74.361C324.32 74.601 324.692 74.907 324.968 75.279C325.244 75.651 325.448 76.047 325.58 76.467C325.712 76.887 325.796 77.286 325.832 77.664C325.874 78.036 325.895 78.339 325.895 78.573V84H323.699ZM316.958 84V71.04H318.893V77.862H319.154V84H316.958ZM335.123 84.243C334.475 84.243 333.863 84.117 333.287 83.865C332.711 83.613 332.21 83.256 331.784 82.794C331.364 82.332 331.061 81.786 330.875 81.156L332.972 80.589C333.122 81.105 333.395 81.504 333.791 81.786C334.193 82.062 334.634 82.197 335.114 82.191C335.54 82.191 335.921 82.092 336.257 81.894C336.593 81.696 336.857 81.429 337.049 81.093C337.241 80.751 337.337 80.37 337.337 79.95C337.337 79.308 337.13 78.771 336.716 78.339C336.302 77.907 335.768 77.691 335.114 77.691C334.916 77.691 334.721 77.718 334.529 77.772C334.343 77.826 334.163 77.901 333.989 77.997L332.999 76.287L337.355 72.561L337.544 73.083H331.379V71.04H339.326V73.092L335.825 76.458L335.807 75.819C336.593 75.873 337.262 76.092 337.814 76.476C338.372 76.86 338.798 77.355 339.092 77.961C339.392 78.567 339.542 79.23 339.542 79.95C339.542 80.766 339.341 81.498 338.939 82.146C338.543 82.794 338.009 83.307 337.337 83.685C336.671 84.057 335.933 84.243 335.123 84.243Z" fill="#051238" fill-opacity="0.9"/>
<path d="M377.26 84V71.04H379.213L383.695 80.22L388.177 71.04H390.13V84H388.105V75.693L384.127 84H383.263L379.294 75.693V84H377.26ZM396.735 84.27C395.763 84.27 394.914 84.051 394.188 83.613C393.462 83.175 392.898 82.572 392.496 81.804C392.1 81.03 391.902 80.142 391.902 79.14C391.902 78.12 392.106 77.226 392.514 76.458C392.922 75.69 393.489 75.09 394.215 74.658C394.941 74.226 395.781 74.01 396.735 74.01C397.713 74.01 398.565 74.229 399.291 74.667C400.017 75.105 400.581 75.711 400.983 76.485C401.385 77.253 401.586 78.138 401.586 79.14C401.586 80.148 401.382 81.039 400.974 81.813C400.572 82.581 400.008 83.184 399.282 83.622C398.556 84.054 397.707 84.27 396.735 84.27ZM396.735 82.236C397.599 82.236 398.241 81.948 398.661 81.372C399.081 80.796 399.291 80.052 399.291 79.14C399.291 78.198 399.078 77.448 398.652 76.89C398.226 76.326 397.587 76.044 396.735 76.044C396.153 76.044 395.673 76.176 395.295 76.44C394.923 76.698 394.647 77.061 394.467 77.529C394.287 77.991 394.197 78.528 394.197 79.14C394.197 80.082 394.41 80.835 394.836 81.399C395.268 81.957 395.901 82.236 396.735 82.236ZM410.076 84V79.32C410.076 79.014 410.055 78.675 410.013 78.303C409.971 77.931 409.872 77.574 409.716 77.232C409.566 76.884 409.338 76.599 409.032 76.377C408.732 76.155 408.324 76.044 407.808 76.044C407.532 76.044 407.259 76.089 406.989 76.179C406.719 76.269 406.473 76.425 406.251 76.647C406.035 76.863 405.861 77.163 405.729 77.547C405.597 77.925 405.531 78.411 405.531 79.005L404.244 78.456C404.244 77.628 404.403 76.878 404.721 76.206C405.045 75.534 405.519 75 406.143 74.604C406.767 74.202 407.535 74.001 408.447 74.001C409.167 74.001 409.761 74.121 410.229 74.361C410.697 74.601 411.069 74.907 411.345 75.279C411.621 75.651 411.825 76.047 411.957 76.467C412.089 76.887 412.173 77.286 412.209 77.664C412.251 78.036 412.272 78.339 412.272 78.573V84H410.076ZM403.335 84V74.28H405.27V77.295H405.531V84H403.335ZM420.102 84C419.46 84.12 418.83 84.171 418.212 84.153C417.6 84.141 417.051 84.03 416.565 83.82C416.079 83.604 415.71 83.265 415.458 82.803C415.236 82.383 415.119 81.954 415.107 81.516C415.095 81.078 415.089 80.583 415.089 80.031V71.58H417.249V79.905C417.249 80.295 417.252 80.637 417.258 80.931C417.27 81.225 417.333 81.465 417.447 81.651C417.663 82.011 418.008 82.212 418.482 82.254C418.956 82.296 419.496 82.272 420.102 82.182V84ZM413.325 75.981V74.28H420.102V75.981H413.325ZM428.699 84V79.32C428.699 79.014 428.678 78.675 428.636 78.303C428.594 77.931 428.495 77.574 428.339 77.232C428.189 76.884 427.961 76.599 427.655 76.377C427.355 76.155 426.947 76.044 426.431 76.044C426.155 76.044 425.882 76.089 425.612 76.179C425.342 76.269 425.096 76.425 424.874 76.647C424.658 76.863 424.484 77.163 424.352 77.547C424.22 77.925 424.154 78.411 424.154 79.005L422.867 78.456C422.867 77.628 423.026 76.878 423.344 76.206C423.668 75.534 424.142 75 424.766 74.604C425.39 74.202 426.158 74.001 427.07 74.001C427.79 74.001 428.384 74.121 428.852 74.361C429.32 74.601 429.692 74.907 429.968 75.279C430.244 75.651 430.448 76.047 430.58 76.467C430.712 76.887 430.796 77.286 430.832 77.664C430.874 78.036 430.895 78.339 430.895 78.573V84H428.699ZM421.958 84V71.04H423.893V77.862H424.154V84H421.958ZM441.797 84V81.858H436.055V79.833L440.204 71.04H442.679L438.53 79.833H441.797V76.458H443.993V79.833H445.208V81.858H443.993V84H441.797Z" fill="#051238" fill-opacity="0.9"/>
<path d="M483.26 84V71.04H485.213L489.695 80.22L494.177 71.04H496.13V84H494.105V75.693L490.127 84H489.263L485.294 75.693V84H483.26ZM502.735 84.27C501.763 84.27 500.914 84.051 500.188 83.613C499.462 83.175 498.898 82.572 498.496 81.804C498.1 81.03 497.902 80.142 497.902 79.14C497.902 78.12 498.106 77.226 498.514 76.458C498.922 75.69 499.489 75.09 500.215 74.658C500.941 74.226 501.781 74.01 502.735 74.01C503.713 74.01 504.565 74.229 505.291 74.667C506.017 75.105 506.581 75.711 506.983 76.485C507.385 77.253 507.586 78.138 507.586 79.14C507.586 80.148 507.382 81.039 506.974 81.813C506.572 82.581 506.008 83.184 505.282 83.622C504.556 84.054 503.707 84.27 502.735 84.27ZM502.735 82.236C503.599 82.236 504.241 81.948 504.661 81.372C505.081 80.796 505.291 80.052 505.291 79.14C505.291 78.198 505.078 77.448 504.652 76.89C504.226 76.326 503.587 76.044 502.735 76.044C502.153 76.044 501.673 76.176 501.295 76.44C500.923 76.698 500.647 77.061 500.467 77.529C500.287 77.991 500.197 78.528 500.197 79.14C500.197 80.082 500.41 80.835 500.836 81.399C501.268 81.957 501.901 82.236 502.735 82.236ZM516.076 84V79.32C516.076 79.014 516.055 78.675 516.013 78.303C515.971 77.931 515.872 77.574 515.716 77.232C515.566 76.884 515.338 76.599 515.032 76.377C514.732 76.155 514.324 76.044 513.808 76.044C513.532 76.044 513.259 76.089 512.989 76.179C512.719 76.269 512.473 76.425 512.251 76.647C512.035 76.863 511.861 77.163 511.729 77.547C511.597 77.925 511.531 78.411 511.531 79.005L510.244 78.456C510.244 77.628 510.403 76.878 510.721 76.206C511.045 75.534 511.519 75 512.143 74.604C512.767 74.202 513.535 74.001 514.447 74.001C515.167 74.001 515.761 74.121 516.229 74.361C516.697 74.601 517.069 74.907 517.345 75.279C517.621 75.651 517.825 76.047 517.957 76.467C518.089 76.887 518.173 77.286 518.209 77.664C518.251 78.036 518.272 78.339 518.272 78.573V84H516.076ZM509.335 84V74.28H511.27V77.295H511.531V84H509.335ZM526.102 84C525.46 84.12 524.83 84.171 524.212 84.153C523.6 84.141 523.051 84.03 522.565 83.82C522.079 83.604 521.71 83.265 521.458 82.803C521.236 82.383 521.119 81.954 521.107 81.516C521.095 81.078 521.089 80.583 521.089 80.031V71.58H523.249V79.905C523.249 80.295 523.252 80.637 523.258 80.931C523.27 81.225 523.333 81.465 523.447 81.651C523.663 82.011 524.008 82.212 524.482 82.254C524.956 82.296 525.496 82.272 526.102 82.182V84ZM519.325 75.981V74.28H526.102V75.981H519.325ZM534.699 84V79.32C534.699 79.014 534.678 78.675 534.636 78.303C534.594 77.931 534.495 77.574 534.339 77.232C534.189 76.884 533.961 76.599 533.655 76.377C533.355 76.155 532.947 76.044 532.431 76.044C532.155 76.044 531.882 76.089 531.612 76.179C531.342 76.269 531.096 76.425 530.874 76.647C530.658 76.863 530.484 77.163 530.352 77.547C530.22 77.925 530.154 78.411 530.154 79.005L528.867 78.456C528.867 77.628 529.026 76.878 529.344 76.206C529.668 75.534 530.142 75 530.766 74.604C531.39 74.202 532.158 74.001 533.07 74.001C533.79 74.001 534.384 74.121 534.852 74.361C535.32 74.601 535.692 74.907 535.968 75.279C536.244 75.651 536.448 76.047 536.58 76.467C536.712 76.887 536.796 77.286 536.832 77.664C536.874 78.036 536.895 78.339 536.895 78.573V84H534.699ZM527.958 84V71.04H529.893V77.862H530.154V84H527.958ZM546.258 84.27C545.598 84.27 544.983 84.135 544.413 83.865C543.843 83.589 543.351 83.211 542.937 82.731C542.529 82.251 542.235 81.693 542.055 81.057L544.143 80.499C544.227 80.847 544.38 81.147 544.602 81.399C544.83 81.651 545.094 81.846 545.394 81.984C545.7 82.122 546.015 82.191 546.339 82.191C546.759 82.191 547.143 82.089 547.491 81.885C547.839 81.681 548.115 81.408 548.319 81.066C548.523 80.718 548.625 80.334 548.625 79.914C548.625 79.494 548.52 79.113 548.31 78.771C548.106 78.423 547.83 78.15 547.482 77.952C547.134 77.748 546.753 77.646 546.339 77.646C545.841 77.646 545.427 77.736 545.097 77.916C544.773 78.096 544.524 78.288 544.35 78.492L542.496 77.898L542.892 71.04H549.93V73.074H544.053L544.863 72.309L544.575 77.079L544.179 76.593C544.515 76.287 544.905 76.059 545.349 75.909C545.793 75.759 546.222 75.684 546.636 75.684C547.446 75.684 548.163 75.87 548.787 76.242C549.417 76.608 549.909 77.109 550.263 77.745C550.623 78.381 550.803 79.104 550.803 79.914C550.803 80.724 550.593 81.459 550.173 82.119C549.753 82.773 549.198 83.295 548.508 83.685C547.824 84.075 547.074 84.27 546.258 84.27Z" fill="#051238" fill-opacity="0.9"/>
<path d="M588.26 84V71.04H590.213L594.695 80.22L599.177 71.04H601.13V84H599.105V75.693L595.127 84H594.263L590.294 75.693V84H588.26ZM607.735 84.27C606.763 84.27 605.914 84.051 605.188 83.613C604.462 83.175 603.898 82.572 603.496 81.804C603.1 81.03 602.902 80.142 602.902 79.14C602.902 78.12 603.106 77.226 603.514 76.458C603.922 75.69 604.489 75.09 605.215 74.658C605.941 74.226 606.781 74.01 607.735 74.01C608.713 74.01 609.565 74.229 610.291 74.667C611.017 75.105 611.581 75.711 611.983 76.485C612.385 77.253 612.586 78.138 612.586 79.14C612.586 80.148 612.382 81.039 611.974 81.813C611.572 82.581 611.008 83.184 610.282 83.622C609.556 84.054 608.707 84.27 607.735 84.27ZM607.735 82.236C608.599 82.236 609.241 81.948 609.661 81.372C610.081 80.796 610.291 80.052 610.291 79.14C610.291 78.198 610.078 77.448 609.652 76.89C609.226 76.326 608.587 76.044 607.735 76.044C607.153 76.044 606.673 76.176 606.295 76.44C605.923 76.698 605.647 77.061 605.467 77.529C605.287 77.991 605.197 78.528 605.197 79.14C605.197 80.082 605.41 80.835 605.836 81.399C606.268 81.957 606.901 82.236 607.735 82.236ZM621.076 84V79.32C621.076 79.014 621.055 78.675 621.013 78.303C620.971 77.931 620.872 77.574 620.716 77.232C620.566 76.884 620.338 76.599 620.032 76.377C619.732 76.155 619.324 76.044 618.808 76.044C618.532 76.044 618.259 76.089 617.989 76.179C617.719 76.269 617.473 76.425 617.251 76.647C617.035 76.863 616.861 77.163 616.729 77.547C616.597 77.925 616.531 78.411 616.531 79.005L615.244 78.456C615.244 77.628 615.403 76.878 615.721 76.206C616.045 75.534 616.519 75 617.143 74.604C617.767 74.202 618.535 74.001 619.447 74.001C620.167 74.001 620.761 74.121 621.229 74.361C621.697 74.601 622.069 74.907 622.345 75.279C622.621 75.651 622.825 76.047 622.957 76.467C623.089 76.887 623.173 77.286 623.209 77.664C623.251 78.036 623.272 78.339 623.272 78.573V84H621.076ZM614.335 84V74.28H616.27V77.295H616.531V84H614.335ZM631.102 84C630.46 84.12 629.83 84.171 629.212 84.153C628.6 84.141 628.051 84.03 627.565 83.82C627.079 83.604 626.71 83.265 626.458 82.803C626.236 82.383 626.119 81.954 626.107 81.516C626.095 81.078 626.089 80.583 626.089 80.031V71.58H628.249V79.905C628.249 80.295 628.252 80.637 628.258 80.931C628.27 81.225 628.333 81.465 628.447 81.651C628.663 82.011 629.008 82.212 629.482 82.254C629.956 82.296 630.496 82.272 631.102 82.182V84ZM624.325 75.981V74.28H631.102V75.981H624.325ZM639.699 84V79.32C639.699 79.014 639.678 78.675 639.636 78.303C639.594 77.931 639.495 77.574 639.339 77.232C639.189 76.884 638.961 76.599 638.655 76.377C638.355 76.155 637.947 76.044 637.431 76.044C637.155 76.044 636.882 76.089 636.612 76.179C636.342 76.269 636.096 76.425 635.874 76.647C635.658 76.863 635.484 77.163 635.352 77.547C635.22 77.925 635.154 78.411 635.154 79.005L633.867 78.456C633.867 77.628 634.026 76.878 634.344 76.206C634.668 75.534 635.142 75 635.766 74.604C636.39 74.202 637.158 74.001 638.07 74.001C638.79 74.001 639.384 74.121 639.852 74.361C640.32 74.601 640.692 74.907 640.968 75.279C641.244 75.651 641.448 76.047 641.58 76.467C641.712 76.887 641.796 77.286 641.832 77.664C641.874 78.036 641.895 78.339 641.895 78.573V84H639.699ZM632.958 84V71.04H634.893V77.862H635.154V84H632.958ZM651.897 84.27C651.051 84.27 650.289 84.072 649.611 83.676C648.939 83.274 648.405 82.719 648.009 82.011C647.613 81.303 647.415 80.49 647.415 79.572V75.63C647.415 74.646 647.61 73.791 648 73.065C648.396 72.339 648.948 71.778 649.656 71.382C650.37 70.986 651.198 70.788 652.14 70.788C652.794 70.788 653.415 70.899 654.003 71.121C654.591 71.337 655.113 71.685 655.569 72.165L654.003 73.686C653.775 73.416 653.496 73.203 653.166 73.047C652.842 72.891 652.5 72.813 652.14 72.813C651.636 72.813 651.195 72.933 650.817 73.173C650.439 73.407 650.145 73.716 649.935 74.1C649.731 74.484 649.629 74.895 649.629 75.333V77.484L649.233 77.052C649.605 76.62 650.052 76.284 650.574 76.044C651.096 75.798 651.642 75.675 652.212 75.675C653.028 75.675 653.748 75.861 654.372 76.233C654.996 76.599 655.488 77.103 655.848 77.745C656.208 78.381 656.388 79.107 656.388 79.923C656.388 80.733 656.181 81.468 655.767 82.128C655.359 82.782 654.816 83.304 654.138 83.694C653.46 84.078 652.713 84.27 651.897 84.27ZM651.897 82.191C652.317 82.191 652.701 82.092 653.049 81.894C653.397 81.69 653.673 81.417 653.877 81.075C654.087 80.727 654.192 80.343 654.192 79.923C654.192 79.503 654.09 79.119 653.886 78.771C653.682 78.423 653.406 78.147 653.058 77.943C652.716 77.733 652.335 77.628 651.915 77.628C651.495 77.628 651.111 77.733 650.763 77.943C650.415 78.147 650.139 78.423 649.935 78.771C649.731 79.119 649.629 79.503 649.629 79.923C649.629 80.331 649.728 80.709 649.926 81.057C650.13 81.399 650.403 81.675 650.745 81.885C651.093 82.089 651.477 82.191 651.897 82.191Z" fill="#051238" fill-opacity="0.9"/>
<path d="M694.26 84V71.04H696.213L700.695 80.22L705.177 71.04H707.13V84H705.105V75.693L701.127 84H700.263L696.294 75.693V84H694.26ZM713.735 84.27C712.763 84.27 711.914 84.051 711.188 83.613C710.462 83.175 709.898 82.572 709.496 81.804C709.1 81.03 708.902 80.142 708.902 79.14C708.902 78.12 709.106 77.226 709.514 76.458C709.922 75.69 710.489 75.09 711.215 74.658C711.941 74.226 712.781 74.01 713.735 74.01C714.713 74.01 715.565 74.229 716.291 74.667C717.017 75.105 717.581 75.711 717.983 76.485C718.385 77.253 718.586 78.138 718.586 79.14C718.586 80.148 718.382 81.039 717.974 81.813C717.572 82.581 717.008 83.184 716.282 83.622C715.556 84.054 714.707 84.27 713.735 84.27ZM713.735 82.236C714.599 82.236 715.241 81.948 715.661 81.372C716.081 80.796 716.291 80.052 716.291 79.14C716.291 78.198 716.078 77.448 715.652 76.89C715.226 76.326 714.587 76.044 713.735 76.044C713.153 76.044 712.673 76.176 712.295 76.44C711.923 76.698 711.647 77.061 711.467 77.529C711.287 77.991 711.197 78.528 711.197 79.14C711.197 80.082 711.41 80.835 711.836 81.399C712.268 81.957 712.901 82.236 713.735 82.236ZM727.076 84V79.32C727.076 79.014 727.055 78.675 727.013 78.303C726.971 77.931 726.872 77.574 726.716 77.232C726.566 76.884 726.338 76.599 726.032 76.377C725.732 76.155 725.324 76.044 724.808 76.044C724.532 76.044 724.259 76.089 723.989 76.179C723.719 76.269 723.473 76.425 723.251 76.647C723.035 76.863 722.861 77.163 722.729 77.547C722.597 77.925 722.531 78.411 722.531 79.005L721.244 78.456C721.244 77.628 721.403 76.878 721.721 76.206C722.045 75.534 722.519 75 723.143 74.604C723.767 74.202 724.535 74.001 725.447 74.001C726.167 74.001 726.761 74.121 727.229 74.361C727.697 74.601 728.069 74.907 728.345 75.279C728.621 75.651 728.825 76.047 728.957 76.467C729.089 76.887 729.173 77.286 729.209 77.664C729.251 78.036 729.272 78.339 729.272 78.573V84H727.076ZM720.335 84V74.28H722.27V77.295H722.531V84H720.335ZM737.102 84C736.46 84.12 735.83 84.171 735.212 84.153C734.6 84.141 734.051 84.03 733.565 83.82C733.079 83.604 732.71 83.265 732.458 82.803C732.236 82.383 732.119 81.954 732.107 81.516C732.095 81.078 732.089 80.583 732.089 80.031V71.58H734.249V79.905C734.249 80.295 734.252 80.637 734.258 80.931C734.27 81.225 734.333 81.465 734.447 81.651C734.663 82.011 735.008 82.212 735.482 82.254C735.956 82.296 736.496 82.272 737.102 82.182V84ZM730.325 75.981V74.28H737.102V75.981H730.325ZM745.699 84V79.32C745.699 79.014 745.678 78.675 745.636 78.303C745.594 77.931 745.495 77.574 745.339 77.232C745.189 76.884 744.961 76.599 744.655 76.377C744.355 76.155 743.947 76.044 743.431 76.044C743.155 76.044 742.882 76.089 742.612 76.179C742.342 76.269 742.096 76.425 741.874 76.647C741.658 76.863 741.484 77.163 741.352 77.547C741.22 77.925 741.154 78.411 741.154 79.005L739.867 78.456C739.867 77.628 740.026 76.878 740.344 76.206C740.668 75.534 741.142 75 741.766 74.604C742.39 74.202 743.158 74.001 744.07 74.001C744.79 74.001 745.384 74.121 745.852 74.361C746.32 74.601 746.692 74.907 746.968 75.279C747.244 75.651 747.448 76.047 747.58 76.467C747.712 76.887 747.796 77.286 747.832 77.664C747.874 78.036 747.895 78.339 747.895 78.573V84H745.699ZM738.958 84V71.04H740.893V77.862H741.154V84H738.958ZM754.072 84L758.536 73.092H752.875V71.04H760.858V73.092L756.412 84H754.072Z" fill="#051238" fill-opacity="0.9"/>
<path d="M798.26 84V71.04H800.213L804.695 80.22L809.177 71.04H811.13V84H809.105V75.693L805.127 84H804.263L800.294 75.693V84H798.26ZM817.735 84.27C816.763 84.27 815.914 84.051 815.188 83.613C814.462 83.175 813.898 82.572 813.496 81.804C813.1 81.03 812.902 80.142 812.902 79.14C812.902 78.12 813.106 77.226 813.514 76.458C813.922 75.69 814.489 75.09 815.215 74.658C815.941 74.226 816.781 74.01 817.735 74.01C818.713 74.01 819.565 74.229 820.291 74.667C821.017 75.105 821.581 75.711 821.983 76.485C822.385 77.253 822.586 78.138 822.586 79.14C822.586 80.148 822.382 81.039 821.974 81.813C821.572 82.581 821.008 83.184 820.282 83.622C819.556 84.054 818.707 84.27 817.735 84.27ZM817.735 82.236C818.599 82.236 819.241 81.948 819.661 81.372C820.081 80.796 820.291 80.052 820.291 79.14C820.291 78.198 820.078 77.448 819.652 76.89C819.226 76.326 818.587 76.044 817.735 76.044C817.153 76.044 816.673 76.176 816.295 76.44C815.923 76.698 815.647 77.061 815.467 77.529C815.287 77.991 815.197 78.528 815.197 79.14C815.197 80.082 815.41 80.835 815.836 81.399C816.268 81.957 816.901 82.236 817.735 82.236ZM831.076 84V79.32C831.076 79.014 831.055 78.675 831.013 78.303C830.971 77.931 830.872 77.574 830.716 77.232C830.566 76.884 830.338 76.599 830.032 76.377C829.732 76.155 829.324 76.044 828.808 76.044C828.532 76.044 828.259 76.089 827.989 76.179C827.719 76.269 827.473 76.425 827.251 76.647C827.035 76.863 826.861 77.163 826.729 77.547C826.597 77.925 826.531 78.411 826.531 79.005L825.244 78.456C825.244 77.628 825.403 76.878 825.721 76.206C826.045 75.534 826.519 75 827.143 74.604C827.767 74.202 828.535 74.001 829.447 74.001C830.167 74.001 830.761 74.121 831.229 74.361C831.697 74.601 832.069 74.907 832.345 75.279C832.621 75.651 832.825 76.047 832.957 76.467C833.089 76.887 833.173 77.286 833.209 77.664C833.251 78.036 833.272 78.339 833.272 78.573V84H831.076ZM824.335 84V74.28H826.27V77.295H826.531V84H824.335ZM841.102 84C840.46 84.12 839.83 84.171 839.212 84.153C838.6 84.141 838.051 84.03 837.565 83.82C837.079 83.604 836.71 83.265 836.458 82.803C836.236 82.383 836.119 81.954 836.107 81.516C836.095 81.078 836.089 80.583 836.089 80.031V71.58H838.249V79.905C838.249 80.295 838.252 80.637 838.258 80.931C838.27 81.225 838.333 81.465 838.447 81.651C838.663 82.011 839.008 82.212 839.482 82.254C839.956 82.296 840.496 82.272 841.102 82.182V84ZM834.325 75.981V74.28H841.102V75.981H834.325ZM849.699 84V79.32C849.699 79.014 849.678 78.675 849.636 78.303C849.594 77.931 849.495 77.574 849.339 77.232C849.189 76.884 848.961 76.599 848.655 76.377C848.355 76.155 847.947 76.044 847.431 76.044C847.155 76.044 846.882 76.089 846.612 76.179C846.342 76.269 846.096 76.425 845.874 76.647C845.658 76.863 845.484 77.163 845.352 77.547C845.22 77.925 845.154 78.411 845.154 79.005L843.867 78.456C843.867 77.628 844.026 76.878 844.344 76.206C844.668 75.534 845.142 75 845.766 74.604C846.39 74.202 847.158 74.001 848.07 74.001C848.79 74.001 849.384 74.121 849.852 74.361C850.32 74.601 850.692 74.907 850.968 75.279C851.244 75.651 851.448 76.047 851.58 76.467C851.712 76.887 851.796 77.286 851.832 77.664C851.874 78.036 851.895 78.339 851.895 78.573V84H849.699ZM842.958 84V71.04H844.893V77.862H845.154V84H842.958ZM861.654 84.27C860.796 84.27 860.034 84.096 859.368 83.748C858.702 83.4 858.18 82.917 857.802 82.299C857.424 81.681 857.235 80.973 857.235 80.175C857.235 79.461 857.4 78.798 857.73 78.186C858.06 77.574 858.543 77.085 859.179 76.719L859.134 77.412C858.636 77.034 858.249 76.599 857.973 76.107C857.703 75.609 857.568 75.051 857.568 74.433C857.568 73.689 857.742 73.044 858.09 72.498C858.444 71.952 858.927 71.529 859.539 71.229C860.151 70.923 860.856 70.77 861.654 70.77C862.452 70.77 863.157 70.923 863.769 71.229C864.387 71.529 864.87 71.952 865.218 72.498C865.572 73.044 865.749 73.689 865.749 74.433C865.749 75.051 865.617 75.606 865.353 76.098C865.095 76.59 864.702 77.034 864.174 77.43L864.165 76.728C864.789 77.082 865.266 77.568 865.596 78.186C865.932 78.798 866.1 79.461 866.1 80.175C866.1 80.973 865.908 81.681 865.524 82.299C865.146 82.917 864.621 83.4 863.949 83.748C863.283 84.096 862.518 84.27 861.654 84.27ZM861.654 82.227C862.29 82.227 862.806 82.053 863.202 81.705C863.604 81.357 863.805 80.847 863.805 80.175C863.805 79.503 863.607 78.993 863.211 78.645C862.815 78.291 862.296 78.114 861.654 78.114C861.018 78.114 860.505 78.291 860.115 78.645C859.725 78.993 859.53 79.503 859.53 80.175C859.53 80.847 859.725 81.357 860.115 81.705C860.505 82.053 861.018 82.227 861.654 82.227ZM861.654 76.053C862.188 76.053 862.62 75.921 862.95 75.657C863.286 75.387 863.454 74.979 863.454 74.433C863.454 73.887 863.286 73.482 862.95 73.218C862.62 72.948 862.188 72.813 861.654 72.813C861.126 72.813 860.694 72.948 860.358 73.218C860.028 73.482 859.863 73.887 859.863 74.433C859.863 74.979 860.028 75.387 860.358 75.657C860.694 75.921 861.126 76.053 861.654 76.053Z" fill="#051238" fill-opacity="0.9"/>
<path d="M904.26 84V71.04H906.213L910.695 80.22L915.177 71.04H917.13V84H915.105V75.693L911.127 84H910.263L906.294 75.693V84H904.26ZM923.735 84.27C922.763 84.27 921.914 84.051 921.188 83.613C920.462 83.175 919.898 82.572 919.496 81.804C919.1 81.03 918.902 80.142 918.902 79.14C918.902 78.12 919.106 77.226 919.514 76.458C919.922 75.69 920.489 75.09 921.215 74.658C921.941 74.226 922.781 74.01 923.735 74.01C924.713 74.01 925.565 74.229 926.291 74.667C927.017 75.105 927.581 75.711 927.983 76.485C928.385 77.253 928.586 78.138 928.586 79.14C928.586 80.148 928.382 81.039 927.974 81.813C927.572 82.581 927.008 83.184 926.282 83.622C925.556 84.054 924.707 84.27 923.735 84.27ZM923.735 82.236C924.599 82.236 925.241 81.948 925.661 81.372C926.081 80.796 926.291 80.052 926.291 79.14C926.291 78.198 926.078 77.448 925.652 76.89C925.226 76.326 924.587 76.044 923.735 76.044C923.153 76.044 922.673 76.176 922.295 76.44C921.923 76.698 921.647 77.061 921.467 77.529C921.287 77.991 921.197 78.528 921.197 79.14C921.197 80.082 921.41 80.835 921.836 81.399C922.268 81.957 922.901 82.236 923.735 82.236ZM937.076 84V79.32C937.076 79.014 937.055 78.675 937.013 78.303C936.971 77.931 936.872 77.574 936.716 77.232C936.566 76.884 936.338 76.599 936.032 76.377C935.732 76.155 935.324 76.044 934.808 76.044C934.532 76.044 934.259 76.089 933.989 76.179C933.719 76.269 933.473 76.425 933.251 76.647C933.035 76.863 932.861 77.163 932.729 77.547C932.597 77.925 932.531 78.411 932.531 79.005L931.244 78.456C931.244 77.628 931.403 76.878 931.721 76.206C932.045 75.534 932.519 75 933.143 74.604C933.767 74.202 934.535 74.001 935.447 74.001C936.167 74.001 936.761 74.121 937.229 74.361C937.697 74.601 938.069 74.907 938.345 75.279C938.621 75.651 938.825 76.047 938.957 76.467C939.089 76.887 939.173 77.286 939.209 77.664C939.251 78.036 939.272 78.339 939.272 78.573V84H937.076ZM930.335 84V74.28H932.27V77.295H932.531V84H930.335ZM947.102 84C946.46 84.12 945.83 84.171 945.212 84.153C944.6 84.141 944.051 84.03 943.565 83.82C943.079 83.604 942.71 83.265 942.458 82.803C942.236 82.383 942.119 81.954 942.107 81.516C942.095 81.078 942.089 80.583 942.089 80.031V71.58H944.249V79.905C944.249 80.295 944.252 80.637 944.258 80.931C944.27 81.225 944.333 81.465 944.447 81.651C944.663 82.011 945.008 82.212 945.482 82.254C945.956 82.296 946.496 82.272 947.102 82.182V84ZM940.325 75.981V74.28H947.102V75.981H940.325ZM955.699 84V79.32C955.699 79.014 955.678 78.675 955.636 78.303C955.594 77.931 955.495 77.574 955.339 77.232C955.189 76.884 954.961 76.599 954.655 76.377C954.355 76.155 953.947 76.044 953.431 76.044C953.155 76.044 952.882 76.089 952.612 76.179C952.342 76.269 952.096 76.425 951.874 76.647C951.658 76.863 951.484 77.163 951.352 77.547C951.22 77.925 951.154 78.411 951.154 79.005L949.867 78.456C949.867 77.628 950.026 76.878 950.344 76.206C950.668 75.534 951.142 75 951.766 74.604C952.39 74.202 953.158 74.001 954.07 74.001C954.79 74.001 955.384 74.121 955.852 74.361C956.32 74.601 956.692 74.907 956.968 75.279C957.244 75.651 957.448 76.047 957.58 76.467C957.712 76.887 957.796 77.286 957.832 77.664C957.874 78.036 957.895 78.339 957.895 78.573V84H955.699ZM948.958 84V71.04H950.893V77.862H951.154V84H948.958ZM967.6 70.788C968.446 70.788 969.208 70.989 969.886 71.391C970.564 71.787 971.098 72.339 971.488 73.047C971.884 73.749 972.082 74.559 972.082 75.477V79.428C972.082 80.406 971.884 81.261 971.488 81.993C971.098 82.719 970.549 83.28 969.841 83.676C969.133 84.072 968.305 84.27 967.357 84.27C966.703 84.27 966.085 84.159 965.503 83.937C964.921 83.709 964.399 83.361 963.937 82.893L965.494 81.372C965.728 81.642 966.007 81.855 966.331 82.011C966.661 82.161 967.003 82.236 967.357 82.236C967.861 82.236 968.302 82.119 968.68 81.885C969.058 81.645 969.352 81.336 969.562 80.958C969.772 80.574 969.877 80.163 969.877 79.725V77.574L970.264 78.006C969.898 78.438 969.454 78.777 968.932 79.023C968.41 79.263 967.861 79.383 967.285 79.383C966.475 79.383 965.755 79.197 965.125 78.825C964.501 78.453 964.009 77.949 963.649 77.313C963.295 76.671 963.118 75.945 963.118 75.135C963.118 74.325 963.322 73.593 963.73 72.939C964.138 72.279 964.681 71.757 965.359 71.373C966.043 70.983 966.79 70.788 967.6 70.788ZM967.6 72.858C967.18 72.858 966.796 72.96 966.448 73.164C966.1 73.368 965.824 73.644 965.62 73.992C965.416 74.334 965.314 74.715 965.314 75.135C965.314 75.555 965.413 75.939 965.611 76.287C965.815 76.635 966.088 76.911 966.43 77.115C966.778 77.319 967.162 77.421 967.582 77.421C968.002 77.421 968.386 77.319 968.734 77.115C969.082 76.911 969.358 76.635 969.562 76.287C969.772 75.939 969.877 75.555 969.877 75.135C969.877 74.727 969.775 74.352 969.571 74.01C969.367 73.662 969.091 73.383 968.743 73.173C968.401 72.963 968.02 72.858 967.6 72.858Z" fill="#051238" fill-opacity="0.9"/>
<path d="M1010.26 84V71.04H1012.21L1016.7 80.22L1021.18 71.04H1023.13V84H1021.11V75.693L1017.13 84H1016.26L1012.29 75.693V84H1010.26ZM1029.74 84.27C1028.76 84.27 1027.91 84.051 1027.19 83.613C1026.46 83.175 1025.9 82.572 1025.5 81.804C1025.1 81.03 1024.9 80.142 1024.9 79.14C1024.9 78.12 1025.11 77.226 1025.51 76.458C1025.92 75.69 1026.49 75.09 1027.22 74.658C1027.94 74.226 1028.78 74.01 1029.74 74.01C1030.71 74.01 1031.57 74.229 1032.29 74.667C1033.02 75.105 1033.58 75.711 1033.98 76.485C1034.39 77.253 1034.59 78.138 1034.59 79.14C1034.59 80.148 1034.38 81.039 1033.97 81.813C1033.57 82.581 1033.01 83.184 1032.28 83.622C1031.56 84.054 1030.71 84.27 1029.74 84.27ZM1029.74 82.236C1030.6 82.236 1031.24 81.948 1031.66 81.372C1032.08 80.796 1032.29 80.052 1032.29 79.14C1032.29 78.198 1032.08 77.448 1031.65 76.89C1031.23 76.326 1030.59 76.044 1029.74 76.044C1029.15 76.044 1028.67 76.176 1028.3 76.44C1027.92 76.698 1027.65 77.061 1027.47 77.529C1027.29 77.991 1027.2 78.528 1027.2 79.14C1027.2 80.082 1027.41 80.835 1027.84 81.399C1028.27 81.957 1028.9 82.236 1029.74 82.236ZM1043.08 84V79.32C1043.08 79.014 1043.06 78.675 1043.01 78.303C1042.97 77.931 1042.87 77.574 1042.72 77.232C1042.57 76.884 1042.34 76.599 1042.03 76.377C1041.73 76.155 1041.32 76.044 1040.81 76.044C1040.53 76.044 1040.26 76.089 1039.99 76.179C1039.72 76.269 1039.47 76.425 1039.25 76.647C1039.04 76.863 1038.86 77.163 1038.73 77.547C1038.6 77.925 1038.53 78.411 1038.53 79.005L1037.24 78.456C1037.24 77.628 1037.4 76.878 1037.72 76.206C1038.05 75.534 1038.52 75 1039.14 74.604C1039.77 74.202 1040.54 74.001 1041.45 74.001C1042.17 74.001 1042.76 74.121 1043.23 74.361C1043.7 74.601 1044.07 74.907 1044.35 75.279C1044.62 75.651 1044.83 76.047 1044.96 76.467C1045.09 76.887 1045.17 77.286 1045.21 77.664C1045.25 78.036 1045.27 78.339 1045.27 78.573V84H1043.08ZM1036.34 84V74.28H1038.27V77.295H1038.53V84H1036.34ZM1053.1 84C1052.46 84.12 1051.83 84.171 1051.21 84.153C1050.6 84.141 1050.05 84.03 1049.56 83.82C1049.08 83.604 1048.71 83.265 1048.46 82.803C1048.24 82.383 1048.12 81.954 1048.11 81.516C1048.09 81.078 1048.09 80.583 1048.09 80.031V71.58H1050.25V79.905C1050.25 80.295 1050.25 80.637 1050.26 80.931C1050.27 81.225 1050.33 81.465 1050.45 81.651C1050.66 82.011 1051.01 82.212 1051.48 82.254C1051.96 82.296 1052.5 82.272 1053.1 82.182V84ZM1046.32 75.981V74.28H1053.1V75.981H1046.32ZM1061.7 84V79.32C1061.7 79.014 1061.68 78.675 1061.64 78.303C1061.59 77.931 1061.5 77.574 1061.34 77.232C1061.19 76.884 1060.96 76.599 1060.66 76.377C1060.36 76.155 1059.95 76.044 1059.43 76.044C1059.16 76.044 1058.88 76.089 1058.61 76.179C1058.34 76.269 1058.1 76.425 1057.87 76.647C1057.66 76.863 1057.48 77.163 1057.35 77.547C1057.22 77.925 1057.15 78.411 1057.15 79.005L1055.87 78.456C1055.87 77.628 1056.03 76.878 1056.34 76.206C1056.67 75.534 1057.14 75 1057.77 74.604C1058.39 74.202 1059.16 74.001 1060.07 74.001C1060.79 74.001 1061.38 74.121 1061.85 74.361C1062.32 74.601 1062.69 74.907 1062.97 75.279C1063.24 75.651 1063.45 76.047 1063.58 76.467C1063.71 76.887 1063.8 77.286 1063.83 77.664C1063.87 78.036 1063.9 78.339 1063.9 78.573V84H1061.7ZM1054.96 84V71.04H1056.89V77.862H1057.15V84H1054.96ZM1071.67 84V73.407L1069.24 74.892V72.498L1071.67 71.04H1073.88V84H1071.67ZM1081.75 84.27C1080.84 84.27 1080.03 84.075 1079.32 83.685C1078.62 83.289 1078.07 82.74 1077.68 82.038C1077.29 81.336 1077.09 80.526 1077.09 79.608V75.432C1077.09 74.514 1077.29 73.704 1077.68 73.002C1078.07 72.3 1078.62 71.754 1079.32 71.364C1080.03 70.968 1080.84 70.77 1081.75 70.77C1082.67 70.77 1083.48 70.968 1084.17 71.364C1084.88 71.754 1085.43 72.3 1085.82 73.002C1086.22 73.704 1086.42 74.514 1086.42 75.432V79.608C1086.42 80.526 1086.22 81.336 1085.82 82.038C1085.43 82.74 1084.88 83.289 1084.17 83.685C1083.48 84.075 1082.67 84.27 1081.75 84.27ZM1081.75 82.209C1082.21 82.209 1082.62 82.101 1083 81.885C1083.37 81.663 1083.66 81.369 1083.88 81.003C1084.09 80.631 1084.2 80.217 1084.2 79.761V75.27C1084.2 74.808 1084.09 74.394 1083.88 74.028C1083.66 73.656 1083.37 73.362 1083 73.146C1082.62 72.924 1082.21 72.813 1081.75 72.813C1081.3 72.813 1080.88 72.924 1080.51 73.146C1080.14 73.362 1079.85 73.656 1079.63 74.028C1079.41 74.394 1079.31 74.808 1079.31 75.27V79.761C1079.31 80.217 1079.41 80.631 1079.63 81.003C1079.85 81.369 1080.14 81.663 1080.51 81.885C1080.88 82.101 1081.3 82.209 1081.75 82.209Z" fill="#051238" fill-opacity="0.9"/>
<path d="M1124.26 84V71.04H1126.21L1130.7 80.22L1135.18 71.04H1137.13V84H1135.11V75.693L1131.13 84H1130.26L1126.29 75.693V84H1124.26ZM1143.74 84.27C1142.76 84.27 1141.91 84.051 1141.19 83.613C1140.46 83.175 1139.9 82.572 1139.5 81.804C1139.1 81.03 1138.9 80.142 1138.9 79.14C1138.9 78.12 1139.11 77.226 1139.51 76.458C1139.92 75.69 1140.49 75.09 1141.22 74.658C1141.94 74.226 1142.78 74.01 1143.74 74.01C1144.71 74.01 1145.57 74.229 1146.29 74.667C1147.02 75.105 1147.58 75.711 1147.98 76.485C1148.39 77.253 1148.59 78.138 1148.59 79.14C1148.59 80.148 1148.38 81.039 1147.97 81.813C1147.57 82.581 1147.01 83.184 1146.28 83.622C1145.56 84.054 1144.71 84.27 1143.74 84.27ZM1143.74 82.236C1144.6 82.236 1145.24 81.948 1145.66 81.372C1146.08 80.796 1146.29 80.052 1146.29 79.14C1146.29 78.198 1146.08 77.448 1145.65 76.89C1145.23 76.326 1144.59 76.044 1143.74 76.044C1143.15 76.044 1142.67 76.176 1142.3 76.44C1141.92 76.698 1141.65 77.061 1141.47 77.529C1141.29 77.991 1141.2 78.528 1141.2 79.14C1141.2 80.082 1141.41 80.835 1141.84 81.399C1142.27 81.957 1142.9 82.236 1143.74 82.236ZM1157.08 84V79.32C1157.08 79.014 1157.06 78.675 1157.01 78.303C1156.97 77.931 1156.87 77.574 1156.72 77.232C1156.57 76.884 1156.34 76.599 1156.03 76.377C1155.73 76.155 1155.32 76.044 1154.81 76.044C1154.53 76.044 1154.26 76.089 1153.99 76.179C1153.72 76.269 1153.47 76.425 1153.25 76.647C1153.04 76.863 1152.86 77.163 1152.73 77.547C1152.6 77.925 1152.53 78.411 1152.53 79.005L1151.24 78.456C1151.24 77.628 1151.4 76.878 1151.72 76.206C1152.05 75.534 1152.52 75 1153.14 74.604C1153.77 74.202 1154.54 74.001 1155.45 74.001C1156.17 74.001 1156.76 74.121 1157.23 74.361C1157.7 74.601 1158.07 74.907 1158.35 75.279C1158.62 75.651 1158.83 76.047 1158.96 76.467C1159.09 76.887 1159.17 77.286 1159.21 77.664C1159.25 78.036 1159.27 78.339 1159.27 78.573V84H1157.08ZM1150.34 84V74.28H1152.27V77.295H1152.53V84H1150.34ZM1167.1 84C1166.46 84.12 1165.83 84.171 1165.21 84.153C1164.6 84.141 1164.05 84.03 1163.56 83.82C1163.08 83.604 1162.71 83.265 1162.46 82.803C1162.24 82.383 1162.12 81.954 1162.11 81.516C1162.09 81.078 1162.09 80.583 1162.09 80.031V71.58H1164.25V79.905C1164.25 80.295 1164.25 80.637 1164.26 80.931C1164.27 81.225 1164.33 81.465 1164.45 81.651C1164.66 82.011 1165.01 82.212 1165.48 82.254C1165.96 82.296 1166.5 82.272 1167.1 82.182V84ZM1160.32 75.981V74.28H1167.1V75.981H1160.32ZM1175.7 84V79.32C1175.7 79.014 1175.68 78.675 1175.64 78.303C1175.59 77.931 1175.5 77.574 1175.34 77.232C1175.19 76.884 1174.96 76.599 1174.66 76.377C1174.36 76.155 1173.95 76.044 1173.43 76.044C1173.16 76.044 1172.88 76.089 1172.61 76.179C1172.34 76.269 1172.1 76.425 1171.87 76.647C1171.66 76.863 1171.48 77.163 1171.35 77.547C1171.22 77.925 1171.15 78.411 1171.15 79.005L1169.87 78.456C1169.87 77.628 1170.03 76.878 1170.34 76.206C1170.67 75.534 1171.14 75 1171.77 74.604C1172.39 74.202 1173.16 74.001 1174.07 74.001C1174.79 74.001 1175.38 74.121 1175.85 74.361C1176.32 74.601 1176.69 74.907 1176.97 75.279C1177.24 75.651 1177.45 76.047 1177.58 76.467C1177.71 76.887 1177.8 77.286 1177.83 77.664C1177.87 78.036 1177.9 78.339 1177.9 78.573V84H1175.7ZM1168.96 84V71.04H1170.89V77.862H1171.15V84H1168.96ZM1185.67 84V73.407L1183.24 74.892V72.498L1185.67 71.04H1187.88V84H1185.67ZM1193.34 84V73.407L1190.91 74.892V72.498L1193.34 71.04H1195.56V84H1193.34Z" fill="#051238" fill-opacity="0.9"/>
<path d="M1234.26 84V71.04H1236.21L1240.7 80.22L1245.18 71.04H1247.13V84H1245.11V75.693L1241.13 84H1240.26L1236.29 75.693V84H1234.26ZM1253.74 84.27C1252.76 84.27 1251.91 84.051 1251.19 83.613C1250.46 83.175 1249.9 82.572 1249.5 81.804C1249.1 81.03 1248.9 80.142 1248.9 79.14C1248.9 78.12 1249.11 77.226 1249.51 76.458C1249.92 75.69 1250.49 75.09 1251.22 74.658C1251.94 74.226 1252.78 74.01 1253.74 74.01C1254.71 74.01 1255.57 74.229 1256.29 74.667C1257.02 75.105 1257.58 75.711 1257.98 76.485C1258.39 77.253 1258.59 78.138 1258.59 79.14C1258.59 80.148 1258.38 81.039 1257.97 81.813C1257.57 82.581 1257.01 83.184 1256.28 83.622C1255.56 84.054 1254.71 84.27 1253.74 84.27ZM1253.74 82.236C1254.6 82.236 1255.24 81.948 1255.66 81.372C1256.08 80.796 1256.29 80.052 1256.29 79.14C1256.29 78.198 1256.08 77.448 1255.65 76.89C1255.23 76.326 1254.59 76.044 1253.74 76.044C1253.15 76.044 1252.67 76.176 1252.3 76.44C1251.92 76.698 1251.65 77.061 1251.47 77.529C1251.29 77.991 1251.2 78.528 1251.2 79.14C1251.2 80.082 1251.41 80.835 1251.84 81.399C1252.27 81.957 1252.9 82.236 1253.74 82.236ZM1267.08 84V79.32C1267.08 79.014 1267.06 78.675 1267.01 78.303C1266.97 77.931 1266.87 77.574 1266.72 77.232C1266.57 76.884 1266.34 76.599 1266.03 76.377C1265.73 76.155 1265.32 76.044 1264.81 76.044C1264.53 76.044 1264.26 76.089 1263.99 76.179C1263.72 76.269 1263.47 76.425 1263.25 76.647C1263.04 76.863 1262.86 77.163 1262.73 77.547C1262.6 77.925 1262.53 78.411 1262.53 79.005L1261.24 78.456C1261.24 77.628 1261.4 76.878 1261.72 76.206C1262.05 75.534 1262.52 75 1263.14 74.604C1263.77 74.202 1264.54 74.001 1265.45 74.001C1266.17 74.001 1266.76 74.121 1267.23 74.361C1267.7 74.601 1268.07 74.907 1268.35 75.279C1268.62 75.651 1268.83 76.047 1268.96 76.467C1269.09 76.887 1269.17 77.286 1269.21 77.664C1269.25 78.036 1269.27 78.339 1269.27 78.573V84H1267.08ZM1260.34 84V74.28H1262.27V77.295H1262.53V84H1260.34ZM1277.1 84C1276.46 84.12 1275.83 84.171 1275.21 84.153C1274.6 84.141 1274.05 84.03 1273.56 83.82C1273.08 83.604 1272.71 83.265 1272.46 82.803C1272.24 82.383 1272.12 81.954 1272.11 81.516C1272.09 81.078 1272.09 80.583 1272.09 80.031V71.58H1274.25V79.905C1274.25 80.295 1274.25 80.637 1274.26 80.931C1274.27 81.225 1274.33 81.465 1274.45 81.651C1274.66 82.011 1275.01 82.212 1275.48 82.254C1275.96 82.296 1276.5 82.272 1277.1 82.182V84ZM1270.32 75.981V74.28H1277.1V75.981H1270.32ZM1285.7 84V79.32C1285.7 79.014 1285.68 78.675 1285.64 78.303C1285.59 77.931 1285.5 77.574 1285.34 77.232C1285.19 76.884 1284.96 76.599 1284.66 76.377C1284.36 76.155 1283.95 76.044 1283.43 76.044C1283.16 76.044 1282.88 76.089 1282.61 76.179C1282.34 76.269 1282.1 76.425 1281.87 76.647C1281.66 76.863 1281.48 77.163 1281.35 77.547C1281.22 77.925 1281.15 78.411 1281.15 79.005L1279.87 78.456C1279.87 77.628 1280.03 76.878 1280.34 76.206C1280.67 75.534 1281.14 75 1281.77 74.604C1282.39 74.202 1283.16 74.001 1284.07 74.001C1284.79 74.001 1285.38 74.121 1285.85 74.361C1286.32 74.601 1286.69 74.907 1286.97 75.279C1287.24 75.651 1287.45 76.047 1287.58 76.467C1287.71 76.887 1287.8 77.286 1287.83 77.664C1287.87 78.036 1287.9 78.339 1287.9 78.573V84H1285.7ZM1278.96 84V71.04H1280.89V77.862H1281.15V84H1278.96ZM1295.67 84V73.407L1293.24 74.892V72.498L1295.67 71.04H1297.88V84H1295.67ZM1300.73 83.982V82.092L1306.28 77.151C1306.71 76.767 1307.01 76.404 1307.18 76.062C1307.34 75.72 1307.43 75.39 1307.43 75.072C1307.43 74.64 1307.33 74.256 1307.15 73.92C1306.96 73.578 1306.7 73.308 1306.37 73.11C1306.05 72.912 1305.68 72.813 1305.25 72.813C1304.8 72.813 1304.4 72.918 1304.05 73.128C1303.71 73.332 1303.44 73.605 1303.25 73.947C1303.06 74.289 1302.97 74.658 1302.98 75.054H1300.75C1300.75 74.19 1300.94 73.437 1301.33 72.795C1301.72 72.153 1302.25 71.655 1302.93 71.301C1303.61 70.947 1304.4 70.77 1305.29 70.77C1306.12 70.77 1306.87 70.956 1307.53 71.328C1308.19 71.694 1308.71 72.204 1309.08 72.858C1309.46 73.506 1309.65 74.253 1309.65 75.099C1309.65 75.717 1309.57 76.236 1309.4 76.656C1309.23 77.076 1308.98 77.463 1308.64 77.817C1308.31 78.171 1307.9 78.564 1307.41 78.996L1303.48 82.479L1303.28 81.939H1309.65V83.982H1300.73Z" fill="#051238" fill-opacity="0.9"/>
<defs>
<filter id="filter0_d_3002_791" x="0" y="0" width="1372" height="471" filterUnits="userSpaceOnUse" color-interpolation-filters="sRGB">
<feFlood flood-opacity="0" result="BackgroundImageFix"/>
<feColorMatrix in="SourceAlpha" type="matrix" values="0 0 0 0 0 0 0 0 0 0 0 0 0 0 0 0 0 0 127 0" result="hardAlpha"/>
<feOffset dy="4"/>
<feGaussianBlur stdDeviation="15"/>
<feComposite in2="hardAlpha" operator="out"/>
<feColorMatrix type="matrix" values="0 0 0 0 0.396078 0 0 0 0 0.466667 0 0 0 0 0.513726 0 0 0 0.1 0"/>
<feBlend mode="normal" in2="BackgroundImageFix" result="effect1_dropShadow_3002_791"/>
<feBlend mode="normal" in="SourceGraphic" in2="effect1_dropShadow_3002_791" result="shape"/>
</filter>
<filter id="filter1_d_3002_791" x="0" y="0" width="1372" height="536" filterUnits="userSpaceOnUse" color-interpolation-filters="sRGB">
<feFlood flood-opacity="0" result="BackgroundImageFix"/>
<feColorMatrix in="SourceAlpha" type="matrix" values="0 0 0 0 0 0 0 0 0 0 0 0 0 0 0 0 0 0 127 0" result="hardAlpha"/>
<feOffset dy="4"/>
<feGaussianBlur stdDeviation="15"/>
<feComposite in2="hardAlpha" operator="out"/>
<feColorMatrix type="matrix" values="0 0 0 0 0.396078 0 0 0 0 0.466667 0 0 0 0 0.513726 0 0 0 0.1 0"/>
<feBlend mode="normal" in2="BackgroundImageFix" result="effect1_dropShadow_3002_791"/>
<feBlend mode="normal" in="SourceGraphic" in2="effect1_dropShadow_3002_791" result="shape"/>
</filter>
<linearGradient id="paint0_linear_3002_791" x1="149.5" y1="104" x2="149.5" y2="437" gradientUnits="userSpaceOnUse">
<stop stop-color="#051238" stop-opacity="0.03"/>
<stop offset="0.9999" stop-color="white"/>
<stop offset="1" stop-color="#666666"/>
</linearGradient>
<linearGradient id="paint1_linear_3002_791" x1="253.5" y1="104" x2="253.5" y2="437" gradientUnits="userSpaceOnUse">
<stop stop-color="#051238" stop-opacity="0.03"/>
<stop offset="0.9999" stop-color="white"/>
<stop offset="1" stop-color="#666666"/>
</linearGradient>
<linearGradient id="paint2_linear_3002_791" x1="358.5" y1="104" x2="358.5" y2="437" gradientUnits="userSpaceOnUse">
<stop stop-color="#051238" stop-opacity="0.03"/>
<stop offset="0.9999" stop-color="white"/>
<stop offset="1" stop-color="#666666"/>
</linearGradient>
<linearGradient id="paint3_linear_3002_791" x1="465.5" y1="104" x2="465.5" y2="437" gradientUnits="userSpaceOnUse">
<stop stop-color="#051238" stop-opacity="0.03"/>
<stop offset="0.9999" stop-color="white"/>
<stop offset="1" stop-color="#666666"/>
</linearGradient>
<linearGradient id="paint4_linear_3002_791" x1="569.5" y1="104" x2="569.5" y2="437" gradientUnits="userSpaceOnUse">
<stop stop-color="#051238" stop-opacity="0.03"/>
<stop offset="0.9999" stop-color="white"/>
<stop offset="1" stop-color="#666666"/>
</linearGradient>
<linearGradient id="paint5_linear_3002_791" x1="675.5" y1="104" x2="675.5" y2="437" gradientUnits="userSpaceOnUse">
<stop stop-color="#051238" stop-opacity="0.03"/>
<stop offset="0.9999" stop-color="white"/>
<stop offset="1" stop-color="#666666"/>
</linearGradient>
<linearGradient id="paint6_linear_3002_791" x1="779.5" y1="104" x2="779.5" y2="437" gradientUnits="userSpaceOnUse">
<stop stop-color="#051238" stop-opacity="0.03"/>
<stop offset="0.9999" stop-color="white"/>
<stop offset="1" stop-color="#666666"/>
</linearGradient>
<linearGradient id="paint7_linear_3002_791" x1="886.5" y1="104" x2="886.5" y2="437" gradientUnits="userSpaceOnUse">
<stop stop-color="#051238" stop-opacity="0.03"/>
<stop offset="0.9999" stop-color="white"/>
<stop offset="1" stop-color="#666666"/>
</linearGradient>
<linearGradient id="paint8_linear_3002_791" x1="992.5" y1="104" x2="992.5" y2="437" gradientUnits="userSpaceOnUse">
<stop stop-color="#051238" stop-opacity="0.03"/>
<stop offset="0.9999" stop-color="white"/>
<stop offset="1" stop-color="#666666"/>
</linearGradient>
<linearGradient id="paint9_linear_3002_791" x1="1106.5" y1="104" x2="1106.5" y2="437" gradientUnits="userSpaceOnUse">
<stop stop-color="#051238" stop-opacity="0.03"/>
<stop offset="0.9999" stop-color="white"/>
<stop offset="1" stop-color="#666666"/>
</linearGradient>
<linearGradient id="paint10_linear_3002_791" x1="1219.5" y1="104" x2="1219.5" y2="437" gradientUnits="userSpaceOnUse">
<stop stop-color="#051238" stop-opacity="0.03"/>
<stop offset="0.9999" stop-color="white"/>
<stop offset="1" stop-color="#666666"/>
</linearGradient>
</defs>
</svg>
