<svg width="24" height="25" viewBox="0 0 24 25" fill="none" xmlns="http://www.w3.org/2000/svg">
<g id="Group 44671">
<path id="Path 440" d="M12 24.8237C18.6312 24.8237 24 19.4411 24 12.8237C24 6.19252 18.6312 0.82373 12 0.82373C5.36879 0.82373 0 6.19252 0 12.8237C0 19.4411 5.36879 24.8237 12 24.8237Z" fill="#00FF94"/>
<path id="Path 448" d="M9.79678 15.7094L17.3991 7.96837C17.5748 7.7834 17.7875 7.69092 18.0372 7.69092C18.2869 7.69092 18.4997 7.7834 18.6754 7.96837C18.8604 8.15335 18.9529 8.37071 18.9529 8.62042C18.9529 8.87014 18.8604 9.08744 18.6754 9.27241L10.4211 17.6794C10.2453 17.8551 10.0372 17.9429 9.79678 17.9429C9.55632 17.9429 9.34823 17.8551 9.1725 17.6794L5.31582 13.7395C5.14009 13.5638 5.05225 13.351 5.05225 13.1013C5.06149 12.8424 5.15862 12.625 5.34359 12.4493C5.51931 12.2643 5.73204 12.1718 5.98175 12.1718C6.22222 12.1718 6.43495 12.2643 6.61992 12.4493L9.79678 15.7094Z" fill="#051238"/>
</g>
</svg>
