<svg width="40" height="36" viewBox="0 0 40 36" fill="none" xmlns="http://www.w3.org/2000/svg">
<path id="Path 450" fill-rule="evenodd" clip-rule="evenodd" d="M20 36C19.5429 36 19.0729 35.9097 18.5904 35.7289C18.1079 35.548 17.6762 35.2767 17.2952 34.915L13.8285 31.6987C10.2983 28.4178 7.11119 25.1497 4.26674 21.8945C1.4223 18.6653 0 15.1001 0 11.1991C0 7.99567 1.04134 5.33489 3.12388 3.21648C5.23182 1.07224 7.86028 0 11.0095 0C12.7619 0 14.4254 0.374559 16 1.12375C17.5746 1.89878 18.9079 2.94511 20 4.26265C21.0921 2.94511 22.4254 1.89878 24 1.12375C25.5746 0.374559 27.2381 0 28.9905 0C32.1397 0 34.7682 1.07224 36.8761 3.21648C38.9587 5.33489 40 7.99567 40 11.1991C40 15.1001 38.5904 18.6782 35.7714 21.9333C32.9269 25.1884 29.7016 28.4694 26.0952 31.7761L22.7048 34.915C22.3238 35.2767 21.8921 35.548 21.4096 35.7289C20.9271 35.9097 20.4571 36 20 36ZM18.0952 8.33155C17.1302 6.9365 16.1016 5.87741 15.0095 5.15405C13.892 4.43069 12.5587 4.0689 11.0095 4.0689C9.00314 4.0689 7.32706 4.75362 5.98103 6.12283C4.66039 7.46621 4 9.15821 4 11.1991C4 12.9558 4.60945 14.8288 5.8285 16.8181C7.07294 18.8073 8.55873 20.7321 10.2857 22.5922C11.9873 24.4522 13.7523 26.1961 15.5809 27.8236C17.3841 29.4512 18.8571 30.7945 20 31.8537C21.1429 30.7945 22.6159 29.4512 24.4191 27.8236C26.2477 26.1961 28.0127 24.4522 29.7143 22.5922C31.4413 20.7321 32.9271 18.8073 34.1715 16.8181C35.3906 14.8288 36 12.9558 36 11.1991C36 9.15821 35.3396 7.46621 34.019 6.12283C32.6729 4.75362 30.9969 4.0689 28.9905 4.0689C27.4413 4.0689 26.108 4.43069 24.9905 5.15405C23.8985 5.87741 22.8698 6.9365 21.9048 8.33155C21.6762 8.66739 21.3968 8.92574 21.0666 9.10658C20.711 9.28742 20.3556 9.37791 20 9.37791C19.6444 9.37791 19.289 9.28742 18.9334 9.10658C18.6032 8.92574 18.3238 8.66739 18.0952 8.33155Z" fill="#A66D00"/>
</svg>
