<svg width="20" height="20" viewBox="0 0 20 20" fill="none" xmlns="http://www.w3.org/2000/svg">
<g id="vuesax/linear/instagram">
<g id="instagram">
<path id="Vector" d="M7.49984 18.3337H12.4998C16.6665 18.3337 18.3332 16.667 18.3332 12.5003V7.50033C18.3332 3.33366 16.6665 1.66699 12.4998 1.66699H7.49984C3.33317 1.66699 1.6665 3.33366 1.6665 7.50033V12.5003C1.6665 16.667 3.33317 18.3337 7.49984 18.3337Z" stroke="white" stroke-opacity="0.8" stroke-width="1.5" stroke-linecap="round" stroke-linejoin="round"/>
<path id="Vector_2" d="M10.0002 12.9163C11.611 12.9163 12.9168 11.6105 12.9168 9.99967C12.9168 8.38884 11.611 7.08301 10.0002 7.08301C8.38933 7.08301 7.0835 8.38884 7.0835 9.99967C7.0835 11.6105 8.38933 12.9163 10.0002 12.9163Z" stroke="white" stroke-opacity="0.8" stroke-width="1.5" stroke-linecap="round" stroke-linejoin="round"/>
<path id="Vector_3" d="M14.6966 5.83366H14.7062" stroke="white" stroke-opacity="0.8" stroke-width="1.5" stroke-linecap="round" stroke-linejoin="round"/>
</g>
</g>
</svg>
