<svg width="20" height="20" viewBox="0 0 20 20" fill="none" xmlns="http://www.w3.org/2000/svg">
<g id="vuesax/linear/star">
<g id="star">
<path id="Vector" d="M11.4406 2.9255L12.9073 5.85883C13.1073 6.26717 13.6406 6.65883 14.0906 6.73383L16.7489 7.1755C18.4489 7.45883 18.8489 8.69217 17.6239 9.90883L15.5573 11.9755C15.2073 12.3255 15.0156 13.0005 15.1239 13.4838L15.7156 16.0422C16.1823 18.0672 15.1073 18.8505 13.3156 17.7922L10.8239 16.3172C10.3739 16.0505 9.63228 16.0505 9.17395 16.3172L6.68228 17.7922C4.89895 18.8505 3.81561 18.0588 4.28228 16.0422L4.87395 13.4838C4.98228 13.0005 4.79061 12.3255 4.44061 11.9755L2.37395 9.90883C1.15728 8.69217 1.54895 7.45883 3.24895 7.1755L5.90728 6.73383C6.34895 6.65883 6.88228 6.26717 7.08228 5.85883L8.54895 2.9255C9.34895 1.33383 10.6489 1.33383 11.4406 2.9255Z" fill="#051238"/>
</g>
</g>
</svg>
