<svg width="20" height="20" viewBox="0 0 20 20" fill="none" xmlns="http://www.w3.org/2000/svg">
<g id="vuesax/linear/star">
<g id="star">
<path id="Vector" d="M11.4408 2.92544L12.9075 5.85877C13.1075 6.26711 13.6408 6.65877 14.0908 6.73377L16.7491 7.17544C18.4491 7.45877 18.8491 8.69211 17.6241 9.90877L15.5575 11.9754C15.2075 12.3254 15.0158 13.0004 15.1241 13.4838L15.7158 16.0421C16.1825 18.0671 15.1075 18.8504 13.3158 17.7921L10.8241 16.3171C10.3741 16.0504 9.63246 16.0504 9.17413 16.3171L6.68246 17.7921C4.89913 18.8504 3.8158 18.0588 4.28246 16.0421L4.87413 13.4838C4.98246 13.0004 4.7908 12.3254 4.4408 11.9754L2.37413 9.90877C1.15746 8.69211 1.54913 7.45877 3.24913 7.17544L5.90746 6.73377C6.34913 6.65877 6.88246 6.26711 7.08246 5.85877L8.54913 2.92544C9.34913 1.33377 10.6491 1.33377 11.4408 2.92544Z" fill="#051238"/>
</g>
</g>
</svg>
